<?xml version="1.0"?>
<svg width="640" height="479.99999999999994" xmlns="http://www.w3.org/2000/svg" xmlnssvg="http://www.w3.org/2000/svg">
 <!-- Created with SVG-edit - https://github.com/SVG-Edit/svgedit-->
 <g class="layer">
  <title>Layer 1</title>
  <rect fill="#7f7f7f" height="0" id="svg_7" stroke="#000000" transform="matrix(1 0 0 1 0 0)" width="0.83" x="-59.83" y="-86.5">Большой Спорт Зал</rect>
  <line fill="none" id="svg_379" opacity="0.5" stroke="#000000" x1="-21.35" x2="-21.35" y1="66.71" y2="66.71"/>
  <g id="svg_4">
   <line fill="none" id="svg_22" stroke="#000000" x1="48.9" x2="133.9" y1="9.75" y2="102.92"/>
   <line fill="none" id="svg_24" stroke="#000000" x1="49.09" x2="12.39" y1="9.75" y2="49.68"/>
   <line fill="none" id="svg_25" stroke="#000000" x1="97.96" x2="12.2" y1="142.43" y2="49.06"/>
   <line fill="none" id="svg_26" stroke="#000000" x1="133.9" x2="109.37" y1="102.96" y2="130.62"/>
   <line fill="none" id="svg_27" stroke="#000000" x1="101.2" x2="87.88" y1="93.19" y2="106.91"/>
   <line fill="none" id="svg_28" stroke="#000000" x1="84.46" x2="76.52" y1="110.27" y2="118.86"/>
   <line fill="none" id="svg_29" stroke="#000000" x1="79.66" x2="83.96" y1="122.57" y2="118.23"/>
   <line fill="none" id="svg_31" stroke="#000000" x1="94.13" x2="87.68" y1="123.83" y2="130.7"/>
   <line fill="none" id="svg_32" stroke="#000000" x1="86.41" x2="94.48" y1="115.21" y2="124.02"/>
   <line fill="none" id="svg_33" points="null" stroke="#000000" x1="98.39" x2="92.44" y1="129.89" y2="136.33"/>
   <line fill="none" id="svg_34" points="null" stroke="#000000" x1="103.68" x2="100.28" y1="136.44" y2="132.57"/>
   <line fill="none" id="svg_35" stroke="#000000" x1="97.69" x2="105.04" y1="142.43" y2="135.1"/>
   <line fill="none" id="svg_36" stroke="#000000" x1="94.13" x2="104.14" y1="100.96" y2="111.99"/>
   <line fill="none" id="svg_37" stroke="#000000" x1="94.55" x2="99.83" y1="112.8" y2="107.2"/>
   <line fill="none" id="svg_38" stroke="#000000" x1="88.76" x2="92.65" y1="106.11" y2="110.63"/>
   <line fill="none" id="svg_39" stroke="#000000" x1="96.78" x2="101.16" y1="110.18" y2="115.16"/>
   <line fill="none" id="svg_42" stroke="#000000" x1="101.16" x2="98.93" y1="114.88" y2="117.33"/>
   <line fill="none" id="svg_43" stroke="#000000" x1="105.54" x2="103.14" y1="110.63" y2="113.17"/>
   <line fill="none" id="svg_44" stroke="#000000" x1="101.58" x2="100.17" y1="109.37" y2="110.81"/>
   <line fill="none" id="svg_45" stroke="#000000" x1="99.67" x2="104.79" y1="94.47" y2="100.43"/>
   <line fill="none" id="svg_46" stroke="#000000" x1="116.04" x2="102.56" y1="83.61" y2="97.9"/>
   <line fill="none" id="svg_47" points="null" stroke="#000000" x1="113.08" x2="104.78" y1="79.9" y2="88.92"/>
   <line fill="none" id="svg_48" stroke="#000000" x1="106.04" x2="113.31" y1="93.74" y2="102.24"/>
   <line fill="none" id="svg_49" points="null" stroke="#000000" x1="108.23" x2="106.17" y1="104.1" y2="101.56"/>
   <line fill="none" id="svg_50" stroke="#000000" x1="113.48" x2="106.2" y1="94.19" y2="101.97"/>
   <line fill="none" id="svg_51" stroke="#000000" x1="109.84" x2="111.91" y1="90.13" y2="92.56"/>
   <line fill="none" id="svg_52" stroke="#000000" x1="108.02" x2="110.17" y1="91.76" y2="94.47"/>
   <line fill="none" id="svg_53" stroke="#000000" x1="108.02" x2="106.28" y1="96" y2="98"/>
   <line fill="none" id="svg_54" points="null" stroke="#000000" x1="113.16" x2="109.99" y1="98.37" y2="101.59"/>
   <line fill="none" id="svg_55" stroke="#000000" x1="117.03" x2="107.2" y1="98.26" y2="108.48"/>
   <line fill="none" id="svg_56" stroke="#000000" x1="113.25" x2="115.9" y1="93.81" y2="96.71"/>
   <line fill="none" id="svg_57" stroke="#000000" x1="126.62" x2="119.93" y1="94.83" y2="102.24"/>
   <line fill="none" id="svg_58" stroke="#000000" x1="116.95" x2="118.11" y1="97.73" y2="99"/>
   <line fill="none" id="svg_59" points="null" stroke="#000000" x1="121.57" x2="115.14" y1="108.11" y2="115.37"/>
   <line fill="none" id="svg_60" stroke="#000000" x1="118.11" x2="120.42" y1="104.23" y2="106.76"/>
   <line fill="none" id="svg_61" points="null" stroke="#000000" x1="123.62" x2="125.42" y1="110.14" y2="112.24"/>
   <line fill="none" id="svg_62" stroke="#000000" x1="118.36" x2="115.21" y1="108.03" y2="111.46"/>
   <line fill="none" id="svg_63" stroke="#000000" x1="122.41" x2="114.55" y1="115.99" y2="107.84"/>
   <line fill="none" id="svg_64" stroke="#000000" x1="106.04" x2="118.44" y1="117.47" y2="104.08"/>
   <line fill="none" id="svg_65" stroke="#000000" x1="119.1" x2="116.95" y1="119.55" y2="117.19"/>
   <line fill="none" id="svg_66" stroke="#000000" x1="111.58" x2="113.81" y1="111.32" y2="113.85"/>
   <line fill="none" id="svg_67" stroke="#000000" x1="121.75" x2="119.02" y1="112.22" y2="115.3"/>
   <line fill="none" id="svg_68" stroke="#000000" x1="109.38" x2="137.65" y1="129.98" y2="162.27"/>
   <line fill="none" id="svg_69" stroke="#000000" x1="97.72" x2="132.44" y1="142.28" y2="180.89"/>
   <line fill="none" id="svg_70" stroke="#000000" x1="151.24" x2="131.97" y1="180.71" y2="180.71"/>
   <line fill="none" id="svg_73" points="null" stroke="#000000" x1="104.38" x2="102.42" y1="119.01" y2="121.12"/>
   <line fill="none" id="svg_74" points="null" stroke="#000000" x1="109.91" x2="102.06" y1="129.63" y2="120.95"/>
   <line fill="none" id="svg_75" points="null" stroke="#000000" x1="136.94" x2="137.14" y1="168.56" y2="72.89"/>
   <line fill="none" id="svg_76" points="null" stroke="#000000" x1="181.7" x2="136.75" y1="73.46" y2="73.23"/>
   <line fill="none" id="svg_77" stroke="#000000" x1="182.13" x2="181.37" y1="219.65" y2="73.51"/>
   <line fill="none" id="svg_78" stroke="#000000" x1="136.99" x2="137.25" y1="173.56" y2="220.01"/>
   <line fill="none" id="svg_79" stroke="#000000" x1="137.28" x2="151.06" y1="82.85" y2="82.93"/>
   <line fill="none" id="svg_80" points="null" stroke="#000000" x1="137.05" x2="151.05" y1="92.07" y2="91.92"/>
   <line fill="none" id="svg_81" stroke="#000000" x1="150.67" x2="150.74" y1="87.67" y2="83.01"/>
   <line fill="none" id="svg_82" points="null" stroke="#000000" x1="155.5" x2="155.42" y1="73.38" y2="99.33"/>
   <line fill="none" id="svg_83" points="null" stroke="#000000" x1="137.05" x2="150.75" y1="100.78" y2="100.86"/>
   <line fill="none" id="svg_84" points="null" stroke="#000000" x1="150.68" x2="150.62" y1="95.68" y2="91.52"/>
   <line fill="none" id="svg_85" points="null" stroke="#000000" x1="155.39" x2="155.35" y1="101.89" y2="109.8"/>
   <line fill="none" id="svg_86" points="null" stroke="#000000" x1="136.75" x2="151.81" y1="109.66" y2="109.61"/>
   <line fill="none" id="svg_87" stroke="#000000" x1="137.05" x2="151.89" y1="122.28" y2="122.36"/>
   <line fill="none" id="svg_88" points="null" stroke="#000000" x1="155.6" x2="136.75" y1="127.26" y2="127.2"/>
   <line fill="none" id="svg_89" stroke="#000000" x1="155.36" x2="155.36" y1="109.74" y2="127.13"/>
   <line fill="none" id="svg_90" stroke="#000000" x1="163.14" x2="163.22" y1="80.32" y2="112.93"/>
   <line fill="none" id="svg_91" points="null" stroke="#000000" x1="157.14" x2="155.31" y1="82.73" y2="82.79"/>
   <line fill="none" id="svg_92" stroke="#000000" x1="160.86" x2="181.25" y1="82.6" y2="82.68"/>
   <line fill="none" id="svg_93" stroke="#000000" x1="167.49" x2="181.17" y1="91.38" y2="91.63"/>
   <line fill="none" id="svg_94" stroke="#000000" x1="167.78" x2="181.17" y1="100.52" y2="100.6"/>
   <line fill="none" id="svg_95" stroke="#000000" x1="167.78" x2="167.71" y1="96.36" y2="91.28"/>
   <line fill="none" id="svg_96" points="null" stroke="#000000" x1="167.87" x2="167.84" y1="105.76" y2="100.26"/>
   <line fill="none" id="svg_97" stroke="#000000" x1="167.86" x2="181.17" y1="109" y2="109.25"/>
   <line fill="none" id="svg_98" stroke="#000000" x1="167.78" x2="167.78" y1="113.01" y2="118.5"/>
   <line fill="none" id="svg_99" stroke="#000000" x1="181.4" x2="168.09" y1="117.92" y2="117.92"/>
   <line fill="none" id="svg_100" stroke="#000000" x1="165.65" x2="167.94" y1="122.11" y2="122.03"/>
   <line fill="none" id="svg_101" stroke="#000000" x1="163.07" x2="181.47" y1="127.1" y2="126.85"/>
   <line fill="none" id="svg_102" stroke="#000000" x1="163.22" x2="163.3" y1="115.87" y2="126.77"/>
   <line fill="none" id="svg_103" stroke="#000000" x1="167.78" x2="167.86" y1="128.88" y2="121.73"/>
   <line fill="none" id="svg_104" points="null" stroke="#000000" x1="137.2" x2="155.54" y1="136.04" y2="136.14"/>
   <line fill="none" id="svg_105" points="null" stroke="#000000" x1="155.37" x2="155.4" y1="132.39" y2="127.07"/>
   <line fill="none" id="svg_106" points="null" stroke="#000000" x1="155.46" x2="155.47" y1="139.08" y2="135.75"/>
   <line fill="none" id="svg_107" stroke="#000000" x1="163.22" x2="163.22" y1="131.26" y2="157.05"/>
   <line fill="none" id="svg_108" stroke="#000000" x1="181.78" x2="163.07" y1="144.32" y2="144.49"/>
   <line fill="none" id="svg_109" stroke="#000000" x1="163.22" x2="164.74" y1="136" y2="136"/>
   <line fill="none" id="svg_110" stroke="#000000" x1="167.94" x2="167.94" y1="131.59" y2="136"/>
   <line fill="none" id="svg_111" stroke="#000000" x1="181.7" x2="166.95" y1="135.59" y2="135.67"/>
   <line fill="none" id="svg_112" stroke="#000000" x1="155.73" x2="137.43" y1="161.71" y2="161.87"/>
   <line fill="none" id="svg_113" points="null" stroke="#000000" x1="155.36" x2="155.49" y1="142.74" y2="161.38"/>
   <line fill="none" id="svg_115" points="null" stroke="#000000" x1="163.23" x2="163.32" y1="159.55" y2="174.53"/>
   <line fill="none" id="svg_116" stroke="#000000" x1="181.55" x2="162.91" y1="162.17" y2="162.42"/>
   <line fill="none" id="svg_117" stroke="#000000" x1="162.91" x2="181.93" y1="180.01" y2="180.09"/>
   <line fill="none" id="svg_118" stroke="#000000" x1="163.37" x2="163.37" y1="184.42" y2="193.49"/>
   <line fill="none" id="svg_119" stroke="#000000" x1="176.76" x2="176.68" y1="184.92" y2="191.91"/>
   <line fill="none" id="svg_120" stroke="#000000" x1="179.34" x2="179.27" y1="184.67" y2="191.91"/>
   <line fill="none" id="svg_124" stroke="#000000" x1="166.26" x2="169.3" y1="184.17" y2="184.25"/>
   <line fill="none" id="svg_125" stroke="#000000" x1="169.15" x2="169" y1="193.9" y2="183.92"/>
   <line fill="none" id="svg_126" stroke="#000000" x1="166.34" x2="169.08" y1="193.57" y2="193.49"/>
   <line fill="none" id="svg_128" stroke="#000000" x1="163.07" x2="181.85" y1="188.78" y2="188.86"/>
   <line fill="none" id="svg_129" stroke="#000000" x1="174.55" x2="174.55" y1="184.78" y2="188.69"/>
   <line fill="none" id="svg_131" points="null" stroke="#000000" x1="153.61" x2="156.27" y1="180.72" y2="180.75"/>
   <line fill="none" id="svg_132" stroke="#000000" x1="156.22" x2="156.15" y1="198.04" y2="180.41"/>
   <line fill="none" id="svg_133" stroke="#000000" x1="136.96" x2="155.92" y1="188.74" y2="188.66"/>
   <line fill="none" id="svg_134" points="null" stroke="#000000" x1="145.63" x2="145.66" y1="194.19" y2="188.44"/>
   <line fill="none" id="svg_135" points="null" stroke="#000000" x1="137.13" x2="140.48" y1="197.82" y2="197.76"/>
   <line fill="none" id="svg_136" stroke="#000000" x1="143.21" x2="155.92" y1="197.76" y2="197.76"/>
   <line fill="none" id="svg_137" stroke="#000000" x1="156.27" x2="156.43" y1="203.59" y2="219.57"/>
   <line fill="none" id="svg_138" stroke="#000000" x1="163.22" x2="182.08" y1="198.11" y2="197.78"/>
   <line fill="none" id="svg_139" stroke="#000000" x1="163.83" x2="181.47" y1="206.43" y2="206.26"/>
   <line fill="none" id="svg_141" stroke="#000000" x1="251.01" x2="136.78" y1="380.64" y2="379.81"/>
   <line fill="none" id="svg_142" points="null" stroke="#000000" x1="250.26" x2="250.59" y1="327.12" y2="380.23"/>
   <line fill="none" id="svg_144" stroke="#000000" x1="236.36" x2="236.36" y1="286.97" y2="327.46"/>
   <line fill="none" id="svg_145" stroke="#000000" x1="137.45" x2="156.71" y1="353.02" y2="353.11"/>
   <line fill="none" id="svg_146" points="null" stroke="#000000" x1="137.46" x2="157.01" y1="344.55" y2="344.53"/>
   <line fill="none" id="svg_147" stroke="#000000" x1="156.42" x2="156.49" y1="353.21" y2="348.05"/>
   <line fill="none" id="svg_148" stroke="#000000" x1="137.24" x2="157.22" y1="335.2" y2="335.37"/>
   <line fill="none" id="svg_149" stroke="#000000" x1="156.75" x2="156.82" y1="339.96" y2="335.39"/>
   <line fill="none" id="svg_150" stroke="#000000" x1="150.62" x2="150.62" y1="340.28" y2="335.12"/>
   <line fill="none" id="svg_151" stroke="#000000" x1="154.26" x2="150.3" y1="339.82" y2="339.9"/>
   <line fill="none" id="svg_152" points="null" stroke="#000000" x1="153.65" x2="153.68" y1="337.2" y2="333.46"/>
   <line fill="none" id="svg_153" stroke="#000000" x1="150.62" x2="150.62" y1="326.47" y2="335.37"/>
   <line fill="none" id="svg_154" points="null" stroke="#000000" x1="143.05" x2="143.06" y1="331.88" y2="334.79"/>
   <line fill="none" id="svg_155" points="null" stroke="#000000" x1="140.84" x2="140.78" y1="335.21" y2="331.79"/>
   <line fill="none" id="svg_156" points="null" stroke="#000000" x1="145.53" x2="150.32" y1="331.79" y2="331.74"/>
   <line fill="none" id="svg_157" stroke="#000000" x1="137.1" x2="157.1" y1="323.13" y2="323.38"/>
   <line fill="none" id="svg_158" stroke="#000000" x1="156.86" x2="156.94" y1="335.14" y2="326.65"/>
   <line fill="none" id="svg_159" points="null" stroke="#000000" x1="150.32" x2="153.82" y1="330.41" y2="330.46"/>
   <line fill="none" id="svg_160" stroke="#000000" x1="137.31" x2="156.63" y1="361.71" y2="361.96"/>
   <path d="m165.55,349.6c-0.08,-0.28 -0.08,-1.02 -0.08,-1.76c0,-0.74 0.02,-1.47 0.09,-2.15c0.08,-0.72 0.08,-1.43 0.14,-2.17c0.06,-0.7 0.37,-1.36 0.53,-2.02c0.17,-0.68 0.44,-1.34 0.82,-1.95c0.38,-0.61 0.81,-1.16 1.23,-1.69c0.43,-0.53 0.88,-0.98 1.46,-1.32c0.56,-0.32 1.15,-0.55 1.76,-0.74l0.64,-0.15" fill="none" id="svg_175" stroke="#000000"/>
   <path d="m165.2,362.76c0.07,0.82 0.08,1.56 0.23,2.24c0.15,0.71 0.33,1.35 0.65,1.92c0.32,0.57 0.66,1.19 1.14,1.6c0.49,0.42 0.94,0.81 1.44,1.15c0.49,0.34 1.02,0.79 1.63,1c0.61,0.21 1.22,0.38 1.84,0.57l0.63,0.09l0.65,0l0.66,0" fill="none" id="svg_176" stroke="#000000"/>
   <line fill="none" id="svg_177" stroke="#000000" x1="165.23" x2="165.23" y1="356.97" y2="363.7"/>
   <line fill="none" id="svg_178" points="null" stroke="#000000" x1="165.53" x2="171.01" y1="353.43" y2="353.51"/>
   <line fill="none" id="svg_179" stroke="#000000" x1="173.44" x2="175.72" y1="353.55" y2="353.55"/>
   <line fill="none" id="svg_180" stroke="#000000" x1="175.34" x2="175.34" y1="366.95" y2="340.58"/>
   <line fill="none" id="svg_181" stroke="#000000" x1="174.13" x2="187.97" y1="371.36" y2="372.02"/>
   <line fill="none" id="svg_182" stroke="#000000" x1="187.67" x2="187.67" y1="374.65" y2="371.49"/>
   <line fill="none" id="svg_183" points="null" stroke="#000000" x1="171.92" x2="187.97" y1="335.67" y2="335.24"/>
   <line fill="none" id="svg_184" stroke="#000000" x1="187.82" x2="187.89" y1="332.87" y2="335.54"/>
   <line fill="none" id="svg_185" stroke="#000000" x1="156.63" x2="162.18" y1="323.39" y2="323.56"/>
   <line fill="none" id="svg_186" stroke="#000000" x1="165.91" x2="187.86" y1="323.56" y2="323.81"/>
   <line fill="none" id="svg_187" stroke="#000000" x1="187.44" x2="187.44" y1="317.29" y2="323.56"/>
   <line fill="none" id="svg_188" stroke="#000000" x1="171.01" x2="171.01" y1="314.16" y2="317.4"/>
   <line fill="none" id="svg_189" stroke="#000000" x1="187.44" x2="170.7" y1="317.57" y2="317.48"/>
   <line fill="none" id="svg_190" stroke="#000000" x1="170.86" x2="170.93" y1="297.07" y2="309.63"/>
   <line fill="none" id="svg_191" points="null" stroke="#000000" x1="137.08" x2="157.85" y1="281.5" y2="281.36"/>
   <line fill="none" id="svg_192" stroke="#000000" x1="137.24" x2="157.64" y1="287.34" y2="287.25"/>
   <line fill="none" id="svg_193" stroke="#000000" x1="157.72" x2="157.72" y1="284.82" y2="287.31"/>
   <line fill="none" id="svg_194" stroke="#000000" x1="137.54" x2="156.1" y1="219.67" y2="219.92"/>
   <line fill="none" id="svg_195" stroke="#000000" x1="156.1" x2="156.56" y1="240" y2="262.55"/>
   <line fill="none" id="svg_196" points="null" stroke="#000000" x1="137.2" x2="137.27" y1="379.49" y2="322.42"/>
   <line fill="none" id="svg_197" stroke="#000000" x1="137.43" x2="137.3" y1="281.12" y2="322.86"/>
   <path d="m146.37,277.74c-0.42,-0.66 -0.84,-1.18 -1.22,-1.77c-0.37,-0.58 -0.85,-1.08 -1.19,-1.67c-0.37,-0.62 -0.65,-1.28 -0.94,-1.94c-0.28,-0.64 -0.56,-1.31 -0.85,-1.94c-0.31,-0.68 -0.68,-1.3 -0.97,-1.97c-0.28,-0.64 -0.56,-1.31 -0.86,-2c-0.28,-0.65 -0.52,-1.31 -0.74,-1.95c-0.22,-0.65 -0.53,-1.31 -0.76,-2l-0.15,-0.72l-0.22,-0.69l-0.16,-0.67" fill="none" id="svg_198" stroke="#000000"/>
   <line fill="none" id="svg_199" stroke="#000000" x1="146.33" x2="146.33" y1="281.51" y2="277.44"/>
   <line fill="none" id="svg_200" stroke="#000000" x1="137.97" x2="137.81" y1="254.4" y2="246.41"/>
   <line fill="none" id="svg_201" stroke="#000000" x1="137.97" x2="143.29" y1="240.5" y2="240.59"/>
   <line fill="none" id="svg_202" stroke="#000000" x1="138.04" x2="143.59" y1="260.47" y2="260.47"/>
   <line fill="none" id="svg_203" stroke="#000000" x1="143.14" x2="143.21" y1="246.58" y2="255.14"/>
   <line fill="none" id="svg_204" points="null" stroke="#000000" x1="142.89" x2="142.89" y1="240.48" y2="243.39"/>
   <line fill="none" id="svg_205" stroke="#000000" x1="143.27" x2="143.27" y1="260.68" y2="259.01"/>
   <line fill="none" id="svg_206" stroke="#000000" x1="156.37" x2="156.45" y1="219.21" y2="232.77"/>
   <line fill="none" id="svg_207" stroke="#000000" x1="140.93" x2="150.74" y1="232.52" y2="232.6"/>
   <line fill="none" id="svg_208" points="null" stroke="#000000" x1="154.64" x2="156.55" y1="232.58" y2="232.53"/>
   <path d="m148.61,219.71c-0.57,0.37 -0.94,0.89 -1.29,1.48c-0.36,0.6 -0.73,1.19 -1.1,1.78c-0.39,0.63 -0.75,1.23 -1.14,1.83c-0.38,0.58 -0.81,1.14 -1.19,1.72c-0.37,0.58 -0.72,1.18 -1.11,1.79c-0.4,0.6 -0.76,1.21 -1.12,1.84c-0.33,0.58 -0.65,1.22 -0.94,1.87c-0.3,0.64 -0.52,1.31 -0.75,2.01c-0.22,0.71 -0.46,1.4 -0.65,2.12c-0.18,0.7 -0.31,1.43 -0.38,2.18l-0.21,0.69l-0.15,0.69" fill="none" id="svg_209" stroke="#000000"/>
   <polyline fill="none" id="svg_210" points="138.34583656050938,240.50327692326937 138.5306861265791,239.84357217306933 " stroke="#000000" stroke-linecap="round"/>
   <line fill="none" id="svg_211" stroke="#000000" x1="171.74" x2="171.74" y1="240.17" y2="251.82"/>
   <line fill="none" id="svg_212" stroke="#000000" x1="171.66" x2="171.74" y1="255.77" y2="261.18"/>
   <line fill="none" id="svg_213" points="null" stroke="#000000" x1="171.66" x2="177.83" y1="240.56" y2="240.69"/>
   <line fill="none" id="svg_214" stroke="#000000" x1="171.59" x2="187.41" y1="247.49" y2="247.57"/>
   <line fill="none" id="svg_215" stroke="#000000" x1="180.11" x2="187.18" y1="240.67" y2="240.75"/>
   <line fill="none" id="svg_216" points="null" stroke="#000000" x1="187.34" x2="187.09" y1="261.48" y2="240.49"/>
   <line fill="none" id="svg_217" stroke="#000000" x1="171.56" x2="187.5" y1="260.98" y2="261.4"/>
   <line fill="none" id="svg_218" stroke="#000000" x1="157.67" x2="157.36" y1="287.25" y2="316.29"/>
   <line fill="none" id="svg_219" stroke="#000000" x1="187.56" x2="187.64" y1="302.05" y2="312.94"/>
   <line fill="none" id="svg_220" stroke="#000000" x1="170.9" x2="190.75" y1="304.79" y2="304.96"/>
   <line fill="none" id="svg_221" points="null" stroke="#000000" x1="194.02" x2="197.45" y1="305.01" y2="304.99"/>
   <line fill="none" id="svg_222" stroke="#000000" x1="200.11" x2="204.37" y1="304.79" y2="304.79"/>
   <line fill="none" id="svg_223" stroke="#000000" x1="170.98" x2="187.56" y1="297.3" y2="297.47"/>
   <line fill="none" id="svg_224" stroke="#000000" x1="187.79" x2="187.71" y1="287.4" y2="298.8"/>
   <line fill="none" id="svg_225" stroke="#000000" x1="137.36" x2="145.72" y1="372.94" y2="373.02"/>
   <line fill="none" id="svg_226" stroke="#000000" x1="148.99" x2="156.83" y1="373.19" y2="373.27"/>
   <line fill="none" id="svg_227" stroke="#000000" x1="156.39" x2="156.39" y1="379.47" y2="373.33"/>
   <line fill="none" id="svg_228" stroke="#000000" x1="171.3" x2="171.37" y1="323.72" y2="327.97"/>
   <line fill="none" id="svg_229" stroke="#000000" x1="179.59" x2="179.66" y1="323.89" y2="328.38"/>
   <line fill="none" id="svg_230" stroke="#000000" x1="176.01" x2="171.07" y1="327.72" y2="327.8"/>
   <line fill="none" id="svg_231" stroke="#000000" x1="182.78" x2="236.71" y1="327.88" y2="327.88"/>
   <line fill="none" id="svg_232" stroke="#000000" x1="250.5" x2="236.27" y1="327.52" y2="327.85"/>
   <line fill="none" id="svg_233" stroke="#000000" x1="171.71" x2="236.06" y1="287.04" y2="287.45"/>
   <line fill="none" id="svg_234" stroke="#000000" x1="171.56" x2="197.95" y1="280.97" y2="281.13"/>
   <line fill="none" id="svg_235" stroke="#000000" x1="187.38" x2="187.45" y1="261.05" y2="280.77"/>
   <line fill="none" id="svg_236" stroke="#000000" x1="187.68" x2="201.3" y1="273.53" y2="273.78"/>
   <line fill="none" id="svg_237" stroke="#000000" x1="200.95" x2="200.96" y1="281.24" y2="273.45"/>
   <line fill="none" id="svg_238" stroke="#000000" x1="205.71" x2="201.3" y1="280.85" y2="280.93"/>
   <line fill="none" id="svg_239" stroke="#000000" x1="207.99" x2="214.61" y1="281.02" y2="281.1"/>
   <line fill="none" id="svg_240" points="null" stroke="#000000" x1="209.78" x2="209.77" y1="270.53" y2="280.77"/>
   <line fill="none" id="svg_241" points="null" stroke="#000000" x1="205.33" x2="200.54" y1="273.68" y2="273.55"/>
   <line fill="none" id="svg_242" stroke="#000000" x1="207.53" x2="209.51" y1="273.45" y2="273.45"/>
   <line fill="none" id="svg_243" stroke="#000000" x1="187.02" x2="187.1" y1="227.6" y2="240.66"/>
   <line fill="none" id="svg_244" stroke="#000000" x1="210.07" x2="187.17" y1="227.83" y2="227.92"/>
   <line fill="none" id="svg_245" stroke="#000000" x1="210.07" x2="214.11" y1="275.67" y2="275.76"/>
   <line fill="none" id="svg_246" stroke="#000000" x1="214.03" x2="209.85" y1="271.52" y2="271.43"/>
   <line fill="none" id="svg_247" points="null" stroke="#000000" x1="209.61" x2="209.55" y1="260.42" y2="267.41"/>
   <line fill="none" id="svg_248" stroke="#000000" x1="213.8" x2="209.54" y1="266.91" y2="266.91"/>
   <line fill="none" id="svg_249" stroke="#000000" x1="218.75" x2="218.67" y1="260.34" y2="267.07"/>
   <line fill="none" id="svg_250" stroke="#000000" x1="215.78" x2="218.44" y1="266.82" y2="266.82"/>
   <line fill="none" id="svg_251" stroke="#000000" x1="187.79" x2="197.83" y1="260.25" y2="260.25"/>
   <line fill="none" id="svg_252" stroke="#000000" x1="200.57" x2="237.69" y1="260.34" y2="260.58"/>
   <line fill="none" id="svg_253" stroke="#000000" x1="225.21" x2="225.21" y1="266.32" y2="260.42"/>
   <line fill="none" id="svg_254" stroke="#000000" x1="218.9" x2="225.59" y1="271.07" y2="270.98"/>
   <line fill="none" id="svg_255" stroke="#000000" x1="218.82" x2="218.97" y1="282.96" y2="274.81"/>
   <line fill="none" id="svg_256" points="null" stroke="#000000" x1="220.93" x2="220.98" y1="274.98" y2="271.31"/>
   <line fill="none" id="svg_257" stroke="#000000" x1="218.9" x2="220.65" y1="274.98" y2="274.89"/>
   <line fill="none" id="svg_258" stroke="#000000" x1="228.1" x2="228.25" y1="270.85" y2="286.91"/>
   <line fill="none" id="svg_259" stroke="#000000" x1="235.25" x2="235.33" y1="281.22" y2="287.37"/>
   <line fill="none" id="svg_260" stroke="#000000" x1="249.25" x2="249.32" y1="282.27" y2="287.68"/>
   <line fill="none" id="svg_261" points="null" stroke="#000000" x1="249.02" x2="267.72" y1="277.7" y2="277.51"/>
   <line fill="none" id="svg_262" stroke="#000000" x1="241.11" x2="248.88" y1="260.34" y2="260.5"/>
   <line fill="none" id="svg_263" stroke="#000000" x1="248.72" x2="248.72" y1="264.99" y2="260.42"/>
   <line fill="none" id="svg_264" points="null" stroke="#000000" x1="248.51" x2="258.4" y1="270.45" y2="270.41"/>
   <line fill="none" id="svg_265" points="null" stroke="#000000" x1="258.21" x2="258.09" y1="277.56" y2="270.23"/>
   <line fill="none" id="svg_266" stroke="#000000" x1="248.72" x2="248.72" y1="272.55" y2="268.3"/>
   <line fill="none" id="svg_270" stroke="#000000" x1="253.51" x2="262.41" y1="260.58" y2="260.58"/>
   <line fill="none" id="svg_271" points="null" stroke="#000000" x1="267.58" x2="267.53" y1="277.48" y2="260.16"/>
   <line fill="none" id="svg_272" stroke="#000000" x1="265.3" x2="267.66" y1="260.42" y2="260.42"/>
   <line fill="none" id="svg_273" stroke="#000000" x1="212.66" x2="237.91" y1="228.17" y2="228.17"/>
   <line fill="none" id="svg_274" stroke="#000000" x1="216.69" x2="216.62" y1="228.34" y2="231.59"/>
   <line fill="none" id="svg_275" stroke="#000000" x1="216.77" x2="237.61" y1="234.16" y2="234.25"/>
   <line fill="none" id="svg_276" stroke="#000000" x1="237.69" x2="237.76" y1="231" y2="228.09"/>
   <line fill="none" id="svg_277" points="null" stroke="#000000" x1="243.29" x2="236.07" y1="228.08" y2="228.22"/>
   <line fill="none" id="svg_278" stroke="#000000" x1="246.74" x2="267.2" y1="227.93" y2="227.59"/>
   <line fill="none" id="svg_279" points="null" stroke="#000000" x1="267.29" x2="267.56" y1="227.42" y2="262.37"/>
   <line fill="none" id="svg_280" stroke="#000000" x1="248.72" x2="248.56" y1="252.05" y2="239.9"/>
   <line fill="none" id="svg_281" stroke="#000000" x1="182.08" x2="239.28" y1="219.52" y2="218.61"/>
   <line fill="none" id="svg_282" stroke="#000000" x1="169.85" x2="175.4" y1="212.14" y2="212.22"/>
   <line fill="none" id="svg_283" stroke="#000000" x1="175.78" x2="175.78" y1="216.21" y2="206.56"/>
   <line fill="none" id="svg_284" stroke="#000000" x1="178.75" x2="178.68" y1="219.65" y2="210.89"/>
   <line fill="none" id="svg_286" stroke="#000000" x1="163.23" x2="163.23" y1="215.21" y2="219.37"/>
   <line fill="none" id="svg_287" stroke="#000000" x1="178.6" x2="162.85" y1="219.37" y2="219.37"/>
   <line fill="none" id="svg_288" stroke="#000000" x1="237.88" x2="239.03" y1="77.92" y2="218.51"/>
   <line fill="none" id="svg_289" points="null" stroke="#000000" x1="281.06" x2="281.42" y1="85.4" y2="215.67"/>
   <line fill="none" id="svg_290" stroke="#000000" x1="267.28" x2="267.05" y1="227.73" y2="215.2"/>
   <line fill="none" id="svg_291" stroke="#000000" x1="261.34" x2="281.8" y1="215.46" y2="215.3"/>
   <line fill="none" id="svg_292" stroke="#000000" x1="246.13" x2="250.77" y1="215.3" y2="215.38"/>
   <line fill="none" id="svg_293" stroke="#000000" x1="250.54" x2="250.47" y1="218.21" y2="211.93"/>
   <line fill="none" id="svg_294" stroke="#000000" x1="238.9" x2="256.47" y1="206.48" y2="206.65"/>
   <line fill="none" id="svg_295" points="null" stroke="#000000" x1="256.58" x2="256.51" y1="215.59" y2="206.27"/>
   <line fill="none" id="svg_296" stroke="#000000" x1="245.6" x2="245.45" y1="212.55" y2="206.48"/>
   <line fill="none" id="svg_297" stroke="#000000" x1="245.6" x2="250.16" y1="212.22" y2="212.14"/>
   <line fill="none" id="svg_298" points="null" stroke="#000000" x1="243.06" x2="243.2" y1="214.27" y2="218.69"/>
   <line fill="none" id="svg_299" stroke="#000000" x1="250.54" x2="243.16" y1="218.06" y2="218.14"/>
   <line fill="none" id="svg_300" points="null" stroke="#000000" x1="263.86" x2="263.85" y1="206.07" y2="180.44"/>
   <line fill="none" id="svg_301" stroke="#000000" x1="281.58" x2="263.62" y1="180.36" y2="180.44"/>
   <line fill="none" id="svg_302" stroke="#000000" x1="256.57" x2="238.6" y1="180.61" y2="180.69"/>
   <line fill="none" id="svg_303" points="null" stroke="#000000" x1="256.34" x2="256.45" y1="184.85" y2="193.84"/>
   <line fill="none" id="svg_304" points="null" stroke="#000000" x1="250.68" x2="250.71" y1="184.02" y2="194.75"/>
   <line fill="none" id="svg_305" points="null" stroke="#000000" x1="254.04" x2="250.54" y1="185.39" y2="185.31"/>
   <line fill="none" id="svg_306" stroke="#000000" x1="254.19" x2="251" y1="193.92" y2="193.92"/>
   <line fill="none" id="svg_307" points="null" stroke="#000000" x1="241.84" x2="241.83" y1="185.76" y2="192.92"/>
   <line fill="none" id="svg_308" stroke="#000000" x1="238.68" x2="256.19" y1="189.34" y2="189.43"/>
   <line fill="none" id="svg_309" stroke="#000000" x1="244.15" x2="244.08" y1="192.59" y2="186.1"/>
   <line fill="none" id="svg_310" stroke="#000000" x1="245.98" x2="246.05" y1="186.18" y2="189.43"/>
   <line fill="none" id="svg_311" stroke="#000000" x1="239.21" x2="256.85" y1="198.43" y2="198.26"/>
   <line fill="none" id="svg_312" stroke="#000000" x1="244.15" x2="244.15" y1="195.85" y2="198.18"/>
   <line fill="none" id="svg_314" stroke="#000000" x1="243.24" x2="243.32" y1="198.59" y2="202.67"/>
   <line fill="none" id="svg_315" stroke="#000000" x1="238.68" x2="256.55" y1="163.6" y2="163.52"/>
   <line fill="none" id="svg_316" stroke="#000000" x1="263.85" x2="263.93" y1="167.56" y2="175.63"/>
   <line fill="none" id="svg_317" stroke="#000000" x1="281.27" x2="263.85" y1="171.97" y2="172.14"/>
   <line fill="none" id="svg_318" points="null" stroke="#000000" x1="263.71" x2="263.84" y1="133.77" y2="164.55"/>
   <line fill="none" id="svg_319" points="null" stroke="#000000" x1="268.07" x2="281.23" y1="146.69" y2="146.61"/>
   <line fill="none" id="svg_320" points="null" stroke="#000000" x1="267.35" x2="280.82" y1="137.91" y2="137.82"/>
   <line fill="none" id="svg_321" points="null" stroke="#000000" x1="263.62" x2="263.65" y1="112.59" y2="129.72"/>
   <line fill="none" id="svg_322" points="null" stroke="#000000" x1="280.74" x2="263.32" y1="112.63" y2="112.59"/>
   <line fill="none" id="svg_323" points="null" stroke="#000000" x1="237.91" x2="256.23" y1="112.88" y2="112.67"/>
   <line fill="none" id="svg_324" stroke="#000000" x1="238.22" x2="252.9" y1="130.11" y2="130.11"/>
   <line fill="none" id="svg_325" stroke="#000000" x1="255.96" x2="256.04" y1="130.11" y2="147.99"/>
   <line fill="none" id="svg_326" stroke="#000000" x1="238.37" x2="252.06" y1="147.3" y2="147.22"/>
   <line fill="none" id="svg_327" stroke="#000000" x1="238.45" x2="255.85" y1="138.82" y2="138.57"/>
   <line fill="none" id="svg_328" stroke="#000000" x1="256.21" x2="256.21" y1="163.63" y2="172.03"/>
   <line fill="none" id="svg_329" stroke="#000000" x1="256.17" x2="256.09" y1="180.33" y2="174.25"/>
   <line fill="none" id="svg_330" stroke="#000000" x1="256.13" x2="256.21" y1="151.73" y2="163.55"/>
   <line fill="none" id="svg_331" stroke="#000000" x1="255.88" x2="255.96" y1="118.22" y2="130.11"/>
   <line fill="none" id="svg_332" stroke="#000000" x1="263.51" x2="263.59" y1="101.58" y2="112.98"/>
   <line fill="none" id="svg_333" stroke="#000000" x1="255.94" x2="256.02" y1="101.85" y2="112.41"/>
   <line fill="none" id="svg_334" stroke="#000000" x1="237.76" x2="252.06" y1="95.77" y2="95.69"/>
   <line fill="none" id="svg_335" points="null" stroke="#000000" x1="255.98" x2="255.98" y1="86.79" y2="99.1"/>
   <line fill="none" id="svg_336" stroke="#000000" x1="237.84" x2="257.54" y1="87.04" y2="86.87"/>
   <line fill="none" id="svg_337" points="null" stroke="#000000" x1="237.5" x2="284.01" y1="78.29" y2="78.57"/>
   <line fill="none" id="svg_338" stroke="#000000" x1="262.73" x2="280.89" y1="86.77" y2="86.86"/>
   <line fill="none" id="svg_339" points="null" stroke="#000000" x1="263.46" x2="263.49" y1="98.75" y2="87.1"/>
   <line fill="none" id="svg_340" points="null" stroke="#000000" x1="267.9" x2="281.29" y1="105.23" y2="105.25"/>
   <line fill="none" id="svg_341" points="null" stroke="#000000" x1="283.62" x2="283.64" y1="69.59" y2="78.41"/>
   <line fill="none" id="svg_342" stroke="#000000" x1="283.25" x2="351.54" y1="69.25" y2="69.14"/>
   <line fill="none" id="svg_343" stroke="#000000" x1="309.95" x2="352.24" y1="95.34" y2="94.76"/>
   <line fill="none" id="svg_344" stroke="#000000" x1="351.78" x2="351.4" y1="94.43" y2="68.89"/>
   <line fill="none" id="svg_345" points="null" stroke="#000000" x1="280.74" x2="310.1" y1="85.8" y2="85.42"/>
   <line fill="none" id="svg_346" stroke="#000000" x1="310.1" x2="309.87" y1="95.42" y2="85.61"/>
   <line fill="none" id="svg_347" points="null" stroke="#000000" x1="283.74" x2="283.7" y1="77.65" y2="81.31"/>
   <line fill="none" id="svg_348" points="null" stroke="#000000" x1="288" x2="283.63" y1="81.01" y2="81.14"/>
   <line fill="none" id="svg_349" stroke="#000000" x1="289.65" x2="292.09" y1="81.06" y2="81.06"/>
   <line fill="none" id="svg_350" stroke="#000000" x1="291.92" x2="291.84" y1="75.13" y2="80.78"/>
   <line fill="none" id="svg_351" stroke="#000000" x1="291.84" x2="304.55" y1="75.29" y2="75.46"/>
   <line fill="none" id="svg_352" stroke="#000000" x1="304.55" x2="304.47" y1="80.87" y2="75.54"/>
   <line fill="none" id="svg_353" stroke="#000000" x1="294.74" x2="298.69" y1="80.7" y2="80.78"/>
   <line fill="none" id="svg_354" stroke="#000000" x1="296.56" x2="296.64" y1="75.21" y2="80.45"/>
   <line fill="none" id="svg_355" stroke="#000000" x1="294.43" x2="298.69" y1="78.2" y2="78.2"/>
   <line fill="none" id="svg_356" stroke="#000000" x1="301.12" x2="301.2" y1="75.46" y2="80.78"/>
   <line fill="none" id="svg_357" points="null" stroke="#000000" x1="303.2" x2="300.97" y1="80.77" y2="80.69"/>
   <line fill="none" id="svg_358" stroke="#000000" x1="304.55" x2="305.92" y1="80.53" y2="80.53"/>
   <line fill="none" id="svg_359" stroke="#000000" x1="310.18" x2="310.25" y1="69.22" y2="80.78"/>
   <line fill="none" id="svg_360" stroke="#000000" x1="308.43" x2="310.02" y1="80.45" y2="80.45"/>
   <line fill="none" id="svg_361" stroke="#000000" x1="344.18" x2="344.25" y1="73.8" y2="92.1"/>
   <line fill="none" id="svg_362" stroke="#000000" x1="351.56" x2="344.1" y1="82.11" y2="82.28"/>
   <line fill="none" id="svg_363" stroke="#000000" x1="347.83" x2="347.83" y1="68.99" y2="74.31"/>
   <line fill="none" id="svg_364" stroke="#000000" x1="344.03" x2="344.03" y1="68.99" y2="71.4"/>
   <line fill="none" id="svg_365" points="null" stroke="#000000" x1="266.67" x2="281.58" y1="189.1" y2="189.2"/>
   <line fill="none" id="svg_366" stroke="#000000" x1="235.33" x2="268.16" y1="287.4" y2="287.28"/>
   <line fill="none" id="svg_367" points="null" stroke="#000000" x1="267.67" x2="267.78" y1="282.04" y2="287.61"/>
   <text fill="#000000" font-family="Courier" font-size="10" id="svg_368" stroke="#000000" stroke-width="0" text-anchor="middle" transform="matrix(0.532005 0.592273 -0.542626 0.582963 42.3742 -15.1767)" x="89.33" xml:space="preserve" y="46.62">большой спорт зал</text>
   <text fill="#000000" font-family="Courier" font-size="10" id="svg_369" stroke="#000000" stroke-width="0" text-anchor="middle" transform="matrix(0.760648 0 0 0.831873 2.9201 1.63924)" x="183.62" xml:space="preserve" y="175.74"/>
   <text fill="#000000" font-family="Courier" font-size="10" id="svg_370" stroke="#000000" stroke-width="0" text-anchor="middle" transform="matrix(0.760648 0 0 0.831873 2.9201 1.63924)" x="182.82" xml:space="preserve" y="176.24"/>
   <text fill="#000000" font-family="Courier" font-size="10" id="svg_371" stroke="#000000" stroke-width="0" text-anchor="middle" transform="matrix(0.760648 0 0 0.831873 2.9201 1.63924)" x="182.82" xml:space="preserve" y="176.24"/>
   <text fill="#000000" font-family="Courier" font-size="10" id="svg_372" stroke="#000000" stroke-width="0" text-anchor="middle" transform="matrix(0.760648 0 0 0.831873 2.9201 1.63924)" x="182.82" xml:space="preserve" y="176.24"/>
   <text fill="#000000" font-family="Courier" font-size="10" id="svg_373" stroke="#000000" stroke-width="0" text-anchor="middle" transform="matrix(0.760648 0 0 0.831873 2.9201 1.63924)" x="182.82" xml:space="preserve" y="176.24"/>
   <text fill="#000000" font-family="Courier" font-size="10" id="svg_374" stroke="#000000" stroke-width="0" text-anchor="middle" transform="matrix(0.760648 0 0 0.831873 2.9201 1.63924)" x="170.22" xml:space="preserve" y="160.4"/>
   <text fill="#000000" font-family="Courier" font-size="10" id="svg_375" stroke="#000000" stroke-width="0" text-anchor="middle" transform="matrix(0.760648 0 0 0.831873 2.9201 1.63924)" x="164.42" xml:space="preserve" y="156.6"/>
   <text fill="#000000" font-family="Courier" font-size="10" id="svg_376" stroke="#000000" stroke-width="0" text-anchor="middle" transform="matrix(0.760648 0 0 0.831873 2.9201 1.63924)" x="157.72" xml:space="preserve" y="155.2"/>
   <text fill="#000000" font-family="Courier" font-size="10" id="svg_377" stroke="#000000" stroke-width="0" text-anchor="middle" transform="matrix(0.760648 0 0 0.831873 2.9201 1.63924)" x="161.22" xml:space="preserve" y="154.5"/>
   <rect fill="none" height="0" id="svg_378" opacity="0.5" stroke="#000000" width="0" x="121.6" y="128.58"/>
   <line fill="none" id="svg_380" opacity="0.5" stroke="#000000" x1="18.1" x2="18.1" y1="53.89" y2="53.89"/>
   <text fill="#000000" font-family="Courier" font-size="5" id="svg_1" stroke="#000000" stroke-width="0" text-anchor="middle" transform="matrix(0.760648 0 0 0.831873 2.9201 1.63924)" x="188.36" xml:space="preserve" y="252.56">101</text>
   <text fill="#000000" font-family="Courier" font-size="5" id="svg_2" stroke="#000000" stroke-width="0" text-anchor="middle" transform="matrix(0.760648 0 0 0.831873 2.9201 1.63924)" x="189.26" xml:space="preserve" y="179.46">106</text>
   <text fill="#000000" font-family="Courier" font-size="5" id="svg_3" stroke="#000000" stroke-width="0" text-anchor="middle" transform="matrix(0.760648 0 0 0.831873 2.9201 1.63924)" x="185.96" xml:space="preserve" y="157.3">107</text>
   <text fill="#000000" font-family="Courier" font-size="5" id="svg_6" stroke="#000000" stroke-width="0" text-anchor="middle" transform="matrix(0.760648 0 0 0.831873 2.9201 1.63924)" x="187.36" xml:space="preserve" y="126.16">108</text>
   <text fill="#000000" font-family="Courier" font-size="5" id="svg_8" stroke="#000000" stroke-width="0" text-anchor="middle" transform="matrix(0.760648 0 0 0.831873 2.9201 1.63924)" x="225.06" xml:space="preserve" y="125.84">109</text>
   <text fill="#000000" font-family="Courier" font-size="5" id="svg_10" stroke="#000000" stroke-width="0" text-anchor="middle" transform="matrix(0.760648 0 0 0.831873 2.9201 1.63924)" x="218.5" xml:space="preserve" y="166.1">110</text>
   <text fill="#000000" font-family="Courier" font-size="5" id="svg_11" stroke="#000000" stroke-width="0" text-anchor="middle" transform="matrix(0.760648 0 0 0.831873 2.9201 1.63924)" x="219.3" xml:space="preserve" y="184.26">111</text>
   <text fill="#000000" font-family="Courier" font-size="5" id="svg_12" stroke="#000000" stroke-width="0" text-anchor="middle" transform="matrix(0.760648 0 0 0.831873 2.9201 1.63924)" x="219.1" xml:space="preserve" y="202.26">112</text>
   <text fill="#000000" font-family="Courier" font-size="5" id="svg_13" stroke="#000000" stroke-width="0" text-anchor="middle" transform="matrix(0.760648 0 0 0.831873 2.9201 1.63924)" x="231.5" xml:space="preserve" y="293.36">130</text>
   <text fill="#000000" font-family="Courier" font-size="5" id="svg_14" stroke="#000000" stroke-width="0" text-anchor="middle" transform="matrix(0.760648 0 0 0.831873 2.9201 1.63924)" x="186.9" xml:space="preserve" y="340.34">141</text>
   <text fill="#000000" font-family="Courier" font-size="5" id="svg_15" stroke="#000000" stroke-width="0" text-anchor="middle" transform="matrix(0.760648 0 0 0.831873 2.9201 1.63924)" x="189.8" xml:space="preserve" y="364.74">140</text>
   <text fill="#000000" font-family="Courier" font-size="5" id="svg_16" stroke="#000000" stroke-width="0" text-anchor="middle" transform="matrix(0.760648 0 0 0.831873 2.9201 1.63924)" x="261.78" xml:space="preserve" y="422.76">Актовый Зал</text>
   <line fill="none" id="svg_17" points="null" stroke="#000000" x1="243.95" x2="243.89" y1="370" y2="380.84"/>
   <line fill="none" id="svg_18" stroke="#000000" x1="243.99" x2="244.22" y1="327.65" y2="339.85"/>
   <line fill="none" id="svg_19" points="null" stroke="#000000" x1="244.03" x2="244.03" y1="342.62" y2="363.76"/>
   <line fill="none" id="svg_20" stroke="#000000" x1="250.57" x2="244.11" y1="363.34" y2="363.42"/>
   <text fill="#000000" font-family="Courier" font-size="5" id="svg_21" stroke="#000000" stroke-width="0" text-anchor="middle" transform="matrix(0.760648 0 0 0.831873 2.9201 1.63924)" x="269.42" xml:space="preserve" y="373.56">Библиотека</text>
   <text fill="#000000" font-family="Courier" font-size="5" id="svg_23" stroke="#000000" stroke-width="0" text-anchor="middle" transform="matrix(0.760648 0 0 0.831873 2.9201 1.63924)" x="278.82" xml:space="preserve" y="295.86">Столовая</text>
   <text fill="#000000" font-family="Courier" font-size="5" id="svg_40" stroke="#000000" stroke-width="0" text-anchor="middle" transform="matrix(0.760648 0 0 0.831873 2.9201 1.63924)" x="352.1" xml:space="preserve" y="241.46">128</text>
   <text fill="#000000" font-family="Courier" font-size="5" id="svg_41" stroke="#000000" stroke-width="0" text-anchor="middle" transform="matrix(0.760648 0 0 0.831873 2.9201 1.63924)" x="351.95" xml:space="preserve" y="211.53">127</text>
   <text fill="#000000" font-family="Courier" font-size="5" id="svg_71" stroke="#000000" stroke-width="0" text-anchor="middle" transform="matrix(0.760648 0 0 0.831873 2.9201 1.63924)" x="320.3" xml:space="preserve" y="205.98">116A</text>
   <text fill="#000000" font-family="Courier" font-size="5" id="svg_72" stroke="#000000" stroke-width="0" text-anchor="middle" transform="matrix(0.760648 0 0 0.831873 2.9201 1.63924)" x="353.2" xml:space="preserve" y="192.22">126</text>
   <text fill="#000000" font-family="Courier" font-size="5" id="svg_114" stroke="#000000" stroke-width="0" text-anchor="middle" transform="matrix(0.760648 0 0 0.831873 2.9201 1.63924)" x="321.1" xml:space="preserve" y="187.12">117</text>
   <text fill="#000000" font-family="Courier" font-size="5" id="svg_121" stroke="#000000" stroke-width="0" text-anchor="middle" transform="matrix(0.760648 0 0 0.831873 2.9201 1.63924)" x="316.9" xml:space="preserve" y="145.86">118</text>
   <text fill="#000000" font-family="Courier" font-size="5" id="svg_122" stroke="#000000" stroke-width="0" text-anchor="middle" transform="matrix(0.760648 0 0 0.831873 2.9201 1.63924)" x="317.2" xml:space="preserve" y="124.38">119</text>
   <text fill="#000000" font-family="Courier" font-size="5" id="svg_123" stroke="#000000" stroke-width="0" text-anchor="middle" transform="matrix(0.760648 0 0 0.831873 2.9201 1.63924)" x="353.6" xml:space="preserve" y="113.72">124</text>
   <text fill="#000000" font-family="Courier" font-size="5" id="svg_127" stroke="#000000" stroke-width="0" text-anchor="middle" transform="matrix(0.760648 0 0 0.831873 2.9201 1.63924)" x="354.1" xml:space="preserve" y="150.82">125</text>
   <text fill="#000000" font-family="Courier" font-size="5" id="svg_140" stroke="#000000" stroke-width="0" text-anchor="middle" transform="matrix(0.760648 0 0 0.831873 2.9201 1.63924)" x="376.14" xml:space="preserve" y="87.32">120</text>
   <text fill="#000000" font-family="Courier" font-size="5" id="svg_143" stroke="#000000" stroke-width="0" text-anchor="middle" transform="matrix(0.760648 0 0 0.831873 2.9201 1.63924)" x="394.9" xml:space="preserve" y="86.02">121</text>
   <text fill="#000000" font-family="Courier" font-size="5" id="svg_161" stroke="#000000" stroke-width="0" text-anchor="middle" transform="matrix(0.760648 0 0 0.831873 2.9201 1.63924)" x="420.7" xml:space="preserve" y="94.12">123</text>
   <path d="m173.66,258.41c0.67,-0.01 1.33,-0.01 2,-0.02c0.01,-0.75 0.01,-1.5 0.02,-2.25c0.66,0 1.32,0 1.99,0c0,-0.76 0,-1.51 0,-2.26c0.68,0 1.36,0 2.04,0c0,-0.73 0,-1.47 0,-2.2c0.67,0 1.35,0 2.02,0c0,-0.73 0,-1.47 0,-2.2c1,0 2,0 3,0c0,0.37 0,0.73 0,1.11c-0.66,0 -1.33,0 -1.99,0c0,0.74 0,1.49 0,2.23c-0.67,0 -1.35,0 -2.02,0c0,0.74 0,1.49 0,2.23c-0.67,0 -1.35,0 -2.02,0c0,0.74 0,1.49 0,2.23c-0.68,0 -1.36,0 -2.04,0c0,0.76 0,1.51 0,2.26c-1.01,0 -2.02,0 -3.03,0c0.05,-0.37 -0.08,-0.77 0.03,-1.13l0,0.01z" fill="none" id="svg_383" stroke="#000000"/>
   <path d="m166.69,204.67c0.37,0 0.73,-0.01 1.09,-0.01c0,-0.41 0.01,-0.82 0.01,-1.22c0.37,0 0.72,0 1.09,0c0,-0.41 0,-0.82 0,-1.23c0.37,0 0.75,0 1.11,0c0,-0.4 0,-0.8 0,-1.21c0.37,0 0.73,0 1.1,0c0,-0.4 0,-0.8 0,-1.21c0.55,0 1.09,0 1.64,0c0,0.2 0,0.4 0,0.6c-0.37,0 -0.72,0 -1.09,0c0,0.41 0,0.82 0,1.21c-0.37,0 -0.73,0 -1.1,0c0,0.41 0,0.82 0,1.21c-0.37,0 -0.73,0 -1.1,0c0,0.41 0,0.82 0,1.21c-0.37,0 -0.75,0 -1.11,0c0,0.41 0,0.82 0,1.23c-0.55,0 -1.1,0 -1.65,0c0.02,-0.2 -0.04,-0.42 0.02,-0.62l0.01,0.02z" fill="none" id="svg_385" stroke="#000000"/>
   <path d="m167.97,80.03c0.4,0 0.79,-0.01 1.19,-0.01c0,-0.45 0.01,-0.89 0.01,-1.34c0.4,0 0.79,0 1.19,0c0,-0.45 0,-0.9 0,-1.35c0.4,0 0.81,0 1.22,0c0,-0.44 0,-0.87 0,-1.31c0.4,0 0.8,0 1.2,0c0,-0.44 0,-0.87 0,-1.31c0.59,0 1.19,0 1.79,0c0,0.22 0,0.44 0,0.66c-0.4,0 -0.79,0 -1.19,0c0,0.44 0,0.89 0,1.33c-0.4,0 -0.8,0 -1.2,0c0,0.44 0,0.89 0,1.33c-0.4,0 -0.8,0 -1.2,0c0,0.44 0,0.89 0,1.33c-0.4,0 -0.81,0 -1.22,0c0,0.45 0,0.9 0,1.35c-0.6,0 -1.2,0 -1.8,0c0.03,-0.22 -0.05,-0.47 0.02,-0.67z" fill="none" id="svg_386" stroke="#000000"/>
   <path d="m83.33,123.77c0.29,0 0.56,0 0.85,-0.01c0,-0.3 0,-0.61 0.01,-0.91c0.27,0 0.56,0 0.84,0c0,-0.31 0,-0.61 0,-0.92c0.29,0 0.57,0 0.87,0c0,-0.3 0,-0.6 0,-0.89c0.29,0 0.57,0 0.85,0c0,-0.3 0,-0.6 0,-0.89c0.42,0 0.85,0 1.27,0c0,0.15 0,0.3 0,0.45c-0.27,0 -0.56,0 -0.84,0c0,0.3 0,0.6 0,0.91c-0.29,0 -0.57,0 -0.85,0c0,0.3 0,0.6 0,0.91c-0.29,0 -0.57,0 -0.85,0c0,0.3 0,0.6 0,0.91c-0.29,0 -0.57,0 -0.87,0c0,0.31 0,0.61 0,0.92c-0.43,0 -0.85,0 -1.28,0c0.02,-0.15 -0.03,-0.32 0.02,-0.46l-0.02,-0.02z" fill="none" id="svg_388" stroke="#000000"/>
   <path d="m242.43,85.13c0.3,0 0.59,-0.01 0.89,-0.01c0,-0.33 0.01,-0.67 0.01,-1.01c0.3,0 0.59,0 0.89,0c0,-0.33 0,-0.67 0,-1.01c0.3,0 0.61,0 0.91,0c0,-0.32 0,-0.66 0,-0.98c0.3,0 0.6,0 0.9,0c0,-0.32 0,-0.66 0,-0.98c0.45,0 0.89,0 1.34,0c0,0.17 0,0.32 0,0.49c-0.3,0 -0.59,0 -0.89,0c0,0.33 0,0.67 0,1c-0.3,0 -0.6,0 -0.9,0c0,0.33 0,0.67 0,1c-0.3,0 -0.6,0 -0.9,0c0,0.33 0,0.67 0,1c-0.3,0 -0.61,0 -0.91,0c0,0.33 0,0.67 0,1.01c-0.45,0 -0.9,0 -1.35,0c0.02,-0.17 -0.03,-0.35 0.02,-0.51z" fill="none" id="svg_389" stroke="#000000"/>
   <path d="m247.64,204.57c0.33,0 0.66,-0.01 0.99,-0.01c0,-0.37 0.01,-0.74 0.01,-1.11c0.33,0 0.66,0 0.99,0c0,-0.37 0,-0.75 0,-1.12c0.33,0 0.68,0 1.01,0c0,-0.37 0,-0.73 0,-1.1c0.33,0 0.67,0 1,0c0,-0.37 0,-0.73 0,-1.1c0.49,0 0.99,0 1.49,0c0,0.18 0,0.37 0,0.55c-0.33,0 -0.66,0 -0.99,0c0,0.37 0,0.74 0,1.11c-0.33,0 -0.67,0 -1,0c0,0.37 0,0.74 0,1.11c-0.33,0 -0.67,0 -1,0c0,0.37 0,0.74 0,1.11c-0.33,0 -0.68,0 -1.01,0c0,0.37 0,0.75 0,1.12c-0.5,0 -1,0 -1.5,0c0.02,-0.18 -0.04,-0.38 0.02,-0.56l0,0.01z" fill="none" id="svg_390" stroke="#000000"/>
   <path d="m189.8,279.48c0.25,0 0.51,0 0.76,-0.01c0,-0.28 0,-0.57 0.01,-0.86c0.25,0 0.5,0 0.76,0c0,-0.28 0,-0.57 0,-0.86c0.26,0 0.52,0 0.78,0c0,-0.28 0,-0.56 0,-0.84c0.26,0 0.51,0 0.77,0c0,-0.28 0,-0.56 0,-0.84c0.38,0 0.76,0 1.14,0c0,0.14 0,0.28 0,0.42c-0.25,0 -0.5,0 -0.76,0c0,0.28 0,0.57 0,0.85c-0.26,0 -0.51,0 -0.77,0c0,0.28 0,0.57 0,0.85c-0.26,0 -0.51,0 -0.77,0c0,0.28 0,0.57 0,0.85c-0.26,0 -0.52,0 -0.78,0c0,0.28 0,0.57 0,0.86c-0.38,0 -0.77,0 -1.15,0c0.02,-0.14 -0.03,-0.3 0.01,-0.43l0,0.02z" fill="none" id="svg_391" stroke="#000000"/>
   <path d="m175.88,302.94c0.22,0 0.44,0 0.66,-0.01c0,-0.25 0,-0.5 0.01,-0.74c0.22,0 0.44,0 0.66,0c0,-0.25 0,-0.5 0,-0.75c0.23,0 0.45,0 0.68,0c0,-0.24 0,-0.48 0,-0.73c0.22,0 0.44,0 0.67,0c0,-0.24 0,-0.48 0,-0.73c0.33,0 0.66,0 0.99,0c0,0.12 0,0.24 0,0.37c-0.22,0 -0.44,0 -0.66,0c0,0.25 0,0.49 0,0.74c-0.22,0 -0.44,0 -0.67,0c0,0.25 0,0.49 0,0.74c-0.22,0 -0.44,0 -0.67,0c0,0.25 0,0.49 0,0.74c-0.23,0 -0.45,0 -0.68,0c0,0.25 0,0.5 0,0.75c-0.33,0 -0.67,0 -1,0c0.02,-0.12 -0.02,-0.26 0.01,-0.37l0.01,0z" fill="none" id="svg_392" stroke="#000000"/>
   <path d="m245.43,338.51c0.2,0 0.4,0 0.6,-0.01c0,-0.22 0,-0.45 0.01,-0.67c0.2,0 0.4,0 0.6,0c0,-0.22 0,-0.46 0,-0.68c0.21,0 0.41,0 0.62,0c0,-0.22 0,-0.44 0,-0.67c0.21,0 0.4,0 0.61,0c0,-0.22 0,-0.44 0,-0.67c0.3,0 0.6,0 0.91,0c0,0.11 0,0.22 0,0.33c-0.2,0 -0.4,0 -0.6,0c0,0.22 0,0.45 0,0.67c-0.21,0 -0.4,0 -0.61,0c0,0.22 0,0.45 0,0.67c-0.21,0 -0.4,0 -0.61,0c0,0.22 0,0.45 0,0.67c-0.21,0 -0.41,0 -0.62,0c0,0.22 0,0.46 0,0.68c-0.3,0 -0.61,0 -0.91,0c0.02,-0.11 -0.02,-0.23 0.01,-0.34z" fill="none" id="svg_393" stroke="#000000"/>
  </g>
 </g>
</svg>
