<?xml version="1.0"?>
<svg width="640" height="479.99999999999994" xmlns="http://www.w3.org/2000/svg" xmlnssvg="http://www.w3.org/2000/svg">
 <!-- Created with SVG-edit - https://github.com/SVG-Edit/svgedit-->
 <title>floor 2</title>
 <g class="layer">
  <title>Layer 1</title>
  <line fill="none" id="svg_370" stroke="#000000" x1="7.98" x2="37.98" y1="68.28" y2="96.28"/>
  <line fill="none" id="svg_371" stroke="#000000" x1="57.28" x2="8.08" y1="17.64" y2="69.14"/>
  <line fill="none" id="svg_372" stroke="#000000" x1="37.28" x2="85.58" y1="96.12" y2="45.42"/>
  <line fill="none" id="svg_373" stroke="#000000" x1="57.18" x2="85.78" y1="17.14" y2="45.74"/>
  <line fill="none" id="svg_374" stroke="#000000" x1="51.28" x2="64.18" y1="36.58" y2="23.98"/>
  <line fill="none" id="svg_375" stroke="#000000" x1="35.98" x2="47.28" y1="51.38" y2="40.58"/>
  <line fill="none" id="svg_376" stroke="#000000" x1="69.18" x2="51.38" y1="62.68" y2="46.58"/>
  <line fill="none" id="svg_377" stroke="#000000" x1="38.88" x2="47.88" y1="48.18" y2="56.98"/>
  <line fill="none" id="svg_378" stroke="#000000" x1="28.28" x2="33.78" y1="58.68" y2="53.48"/>
  <line fill="none" id="svg_379" stroke="#000000" x1="36.78" x2="27.68" y1="68.28" y2="58.58"/>
  <line fill="none" id="svg_380" stroke="#000000" x1="54.98" x2="36.18" y1="49.58" y2="67.88"/>
  <line fill="none" id="svg_381" stroke="#000000" x1="61.38" x2="50.58" y1="70.44" y2="60.34"/>
  <line fill="none" id="svg_382" stroke="#000000" x1="23.38" x2="32.78" y1="81.92" y2="72.22"/>
  <line fill="none" id="svg_383" stroke="#000000" x1="22.78" x2="31.78" y1="64.02" y2="72.72"/>
  <path d="m17.89,73.53c0.36,0 0.72,0 1.08,-0.01c0,-0.37 0,-0.74 0.01,-1.11c0.36,0 0.72,0 1.08,0c0,-0.37 0,-0.74 0,-1.12c0.37,0 0.74,0 1.1,0c0,-0.36 0,-0.73 0,-1.09c0.36,0 0.73,0 1.09,0c0,-0.36 0,-0.73 0,-1.09c0.54,0 1.08,0 1.62,0c0,0.18 0,0.36 0,0.54c-0.36,0 -0.72,0 -1.08,0c0,0.37 0,0.74 0,1.1c-0.36,0 -0.73,0 -1.09,0c0,0.37 0,0.74 0,1.1c-0.36,0 -0.73,0 -1.09,0c0,0.37 0,0.74 0,1.1c-0.37,0 -0.74,0 -1.1,0c0,0.37 0,0.74 0,1.12c-0.54,0 -1.09,0 -1.63,0c0.02,-0.18 -0.04,-0.38 0.02,-0.56l-0.01,0.02z" fill="none" id="svg_384" stroke="#000000"/>
  <text fill="#000000" font-family="Serif" font-size="8" id="svg_386" stroke="#000000" stroke-width="0" text-anchor="middle" x="40.98" xml:space="preserve" y="78.82">258</text>
  <text fill="#000000" font-family="Serif" font-size="4" id="svg_387" stroke="#000000" stroke-width="0" text-anchor="middle" x="58.58" xml:space="preserve" y="62.04">259</text>
  <text fill="#000000" font-family="Serif" font-size="8" id="svg_388" stroke="#000000" stroke-width="0" text-anchor="middle" x="66.68" xml:space="preserve" y="48.08">255</text>
  <text fill="#000000" font-family="Serif" font-size="4" id="svg_389" stroke="#000000" stroke-width="0" text-anchor="middle" x="38.08" xml:space="preserve" y="58.72">256</text>
  <line fill="none" id="svg_390" stroke="#000000" x1="89.74" x2="144.44" y1="11.04" y2="10.44"/>
  <line fill="none" id="svg_391" stroke="#000000" x1="111.98" x2="112.08" y1="10.52" y2="15.02"/>
  <line fill="none" id="svg_392" stroke="#000000" x1="111.88" x2="112.08" y1="18.42" y2="30.02"/>
  <line fill="none" id="svg_393" stroke="#000000" x1="89.98" x2="112.08" y1="30.02" y2="29.82"/>
  <line fill="none" id="svg_394" stroke="#000000" x1="111.98" x2="111.98" y1="33.82" y2="29.32"/>
  <line fill="none" id="svg_395" stroke="#000000" x1="111.78" x2="111.78" y1="50.08" y2="36.38"/>
  <line fill="none" id="svg_396" stroke="#000000" x1="89.98" x2="111.98" y1="50.38" y2="49.78"/>
  <line fill="none" id="svg_397" stroke="#000000" x1="111.88" x2="111.78" y1="53.78" y2="46.68"/>
  <line fill="none" id="svg_398" stroke="#000000" x1="112.18" x2="111.98" y1="83.22" y2="58.32"/>
  <line fill="none" id="svg_399" stroke="#000000" x1="90.38" x2="111.88" y1="79.78" y2="79.38"/>
  <line fill="none" id="svg_400" stroke="#000000" x1="112.38" x2="112.38" y1="108.82" y2="86.92"/>
  <line fill="none" id="svg_401" stroke="#000000" transform="rotate(-1.51942 101.28 108.43)" x1="90.38" x2="112.18" y1="108.22" y2="108.64"/>
  <line fill="none" id="svg_402" stroke="#000000" x1="106.78" x2="106.88" y1="129.46" y2="119.06"/>
  <line fill="none" id="svg_403" stroke="#000000" x1="106.78" x2="106.88" y1="114.76" y2="108.86"/>
  <line fill="none" id="svg_404" stroke="#000000" x1="90.18" x2="107.08" y1="128.96" y2="128.86"/>
  <line fill="none" id="svg_405" stroke="#000000" x1="89.88" x2="89.98" y1="10.66" y2="29.96"/>
  <line fill="none" id="svg_406" stroke="#000000" x1="90.08" x2="89.98" y1="50.42" y2="29.82"/>
  <line fill="none" id="svg_407" stroke="#000000" x1="90.38" x2="90.08" y1="79.46" y2="49.06"/>
  <line fill="none" id="svg_408" stroke="#000000" x1="90.48" x2="90.28" y1="108.76" y2="78.66"/>
  <line fill="none" id="svg_409" stroke="#000000" x1="90.38" x2="90.48" y1="129.08" y2="107.08"/>
  <line fill="none" id="svg_410" stroke="#000000" x1="90.28" x2="90.38" y1="148.46" y2="126.66"/>
  <line fill="none" id="svg_411" stroke="#000000" x1="112.78" x2="90.08" y1="148.48" y2="148.28"/>
  <line fill="none" id="svg_412" stroke="#000000" x1="112.78" x2="112.88" y1="128.18" y2="148.98"/>
  <line fill="none" id="svg_413" stroke="#000000" x1="110.38" x2="112.38" y1="128.58" y2="128.58"/>
  <line fill="none" id="svg_414" stroke="#000000" x1="121.48" x2="121.38" y1="17.82" y2="44.32"/>
  <line fill="none" id="svg_415" stroke="#000000" x1="143.98" x2="121.48" y1="20.42" y2="20.42"/>
  <line fill="none" id="svg_416" stroke="#000000" x1="125.58" x2="144.38" y1="30.42" y2="30.42"/>
  <line fill="none" id="svg_417" stroke="#000000" x1="143.78" x2="143.98" y1="10.12" y2="30.02"/>
  <line fill="none" id="svg_418" stroke="#000000" x1="121.68" x2="121.78" y1="46.98" y2="72.88"/>
  <line fill="none" id="svg_419" stroke="#000000" x1="144.18" x2="121.58" y1="50.08" y2="50.28"/>
  <line fill="none" id="svg_420" stroke="#000000" x1="143.88" x2="143.98" y1="29.68" y2="69.78"/>
  <line fill="none" id="svg_421" stroke="#000000" x1="121.98" x2="122.08" y1="76.42" y2="102.22"/>
  <line fill="none" id="svg_422" stroke="#000000" x1="144.28" x2="121.68" y1="79.22" y2="79.72"/>
  <line fill="none" id="svg_423" stroke="#000000" x1="143.98" x2="144.28" y1="68.98" y2="109.48"/>
  <line fill="none" id="svg_424" stroke="#000000" x1="122.18" x2="122.18" y1="105.86" y2="122.46"/>
  <line fill="none" id="svg_425" stroke="#000000" x1="144.18" x2="121.98" y1="108.66" y2="108.76"/>
  <line fill="none" id="svg_426" stroke="#000000" x1="122.08" x2="122.08" y1="125.08" y2="128.68"/>
  <line fill="none" id="svg_427" stroke="#000000" x1="144.78" x2="121.98" y1="128.48" y2="128.58"/>
  <line fill="none" id="svg_428" stroke="#000000" x1="144.28" x2="144.48" y1="108.78" y2="148.78"/>
  <line fill="none" id="svg_429" stroke="#000000" x1="121.98" x2="122.08" y1="133.26" y2="143.86"/>
  <line fill="none" id="svg_430" stroke="#000000" x1="144.38" x2="121.78" y1="137.86" y2="137.86"/>
  <line fill="none" id="svg_431" stroke="#000000" x1="135.08" x2="135.08" y1="141.76" y2="133.96"/>
  <line fill="none" id="svg_432" stroke="#000000" x1="129.98" x2="129.98" y1="137.66" y2="133.66"/>
  <line fill="none" id="svg_433" stroke="#000000" x1="132.78" x2="132.68" y1="138.46" y2="133.76"/>
  <line fill="none" id="svg_434" stroke="#000000" x1="137.78" x2="137.98" y1="133.66" y2="141.56"/>
  <line fill="none" id="svg_435" stroke="#000000" x1="141.18" x2="141.28" y1="141.46" y2="138.36"/>
  <line fill="none" id="svg_436" stroke="#000000" x1="125.38" x2="128.68" y1="143.68" y2="143.68"/>
  <line fill="none" id="svg_437" stroke="#000000" x1="128.68" x2="128.58" y1="137.38" y2="143.58"/>
  <line fill="none" id="svg_438" stroke="#000000" x1="121.68" x2="144.88" y1="148.52" y2="148.42"/>
  <line fill="none" id="svg_439" stroke="#000000" x1="90.38" x2="90.58" y1="147.16" y2="174.16"/>
  <line fill="none" id="svg_440" stroke="#000000" x1="144.48" x2="144.58" y1="147.48" y2="174.48"/>
  <line fill="none" id="svg_441" stroke="#000000" x1="129.88" x2="140.18" y1="173.68" y2="173.88"/>
  <line fill="none" id="svg_442" stroke="#000000" x1="139.88" x2="139.88" y1="163.98" y2="174.38"/>
  <line fill="none" id="svg_443" stroke="#000000" x1="136.38" x2="136.28" y1="158.18" y2="169.88"/>
  <line fill="none" id="svg_444" stroke="#000000" x1="122.38" x2="144.48" y1="158.56" y2="158.16"/>
  <line fill="none" id="svg_445" stroke="#000000" x1="121.98" x2="121.98" y1="148.16" y2="152.46"/>
  <line fill="none" id="svg_446" stroke="#000000" x1="121.88" x2="121.98" y1="155.46" y2="158.96"/>
  <line fill="none" id="svg_447" stroke="#000000" x1="90.78" x2="112.88" y1="173.98" y2="174.18"/>
  <line fill="none" id="svg_448" stroke="#000000" x1="112.78" x2="112.58" y1="154.58" y2="173.88"/>
  <line fill="none" id="svg_449" stroke="#000000" x1="121.88" x2="121.98" y1="168.82" y2="174.32"/>
  <line fill="none" id="svg_450" stroke="#000000" x1="130.28" x2="121.68" y1="173.42" y2="173.62"/>
  <line fill="none" id="svg_451" stroke="#000000" x1="129.18" x2="129.18" y1="163.78" y2="166.18"/>
  <line fill="none" id="svg_452" stroke="#000000" x1="136.08" x2="129.08" y1="165.78" y2="165.88"/>
  <line fill="none" id="svg_453" stroke="#000000" x1="88.08" x2="112.98" y1="195.82" y2="196.02"/>
  <line fill="none" id="svg_454" stroke="#000000" x1="112.78" x2="112.88" y1="182.82" y2="201.22"/>
  <line fill="none" id="svg_455" stroke="#000000" x1="112.78" x2="112.98" y1="205.02" y2="222.82"/>
  <line fill="none" id="svg_456" stroke="#000000" x1="87.78" x2="112.68" y1="217.32" y2="217.12"/>
  <line fill="none" id="svg_457" stroke="#000000" x1="113.08" x2="113.18" y1="226.68" y2="239.88"/>
  <line fill="none" id="svg_458" stroke="#000000" x1="92.58" x2="113.28" y1="240.26" y2="240.26"/>
  <line fill="none" id="svg_459" stroke="#000000" x1="113.18" x2="113.28" y1="238.52" y2="249.22"/>
  <line fill="none" id="svg_460" stroke="#000000" x1="92.88" x2="93.18" y1="245.22" y2="263.32"/>
  <line fill="none" id="svg_461" stroke="#000000" x1="113.18" x2="113.28" y1="252.42" y2="263.12"/>
  <line fill="none" id="svg_462" stroke="#000000" x1="92.88" x2="112.98" y1="262.82" y2="262.72"/>
  <line fill="none" id="svg_463" stroke="#000000" x1="92.98" x2="93.18" y1="260.86" y2="291.46"/>
  <line fill="none" id="svg_465" stroke="#000000" x1="113.38" x2="113.58" y1="271.66" y2="291.46"/>
  <line fill="none" id="svg_466" stroke="#000000" x1="92.98" x2="113.48" y1="291.06" y2="291.06"/>
  <line fill="none" id="svg_467" stroke="#000000" x1="93.08" x2="109.38" y1="283.06" y2="283.16"/>
  <line fill="none" id="svg_468" stroke="#000000" x1="93.18" x2="93.08" y1="290.48" y2="304.98"/>
  <line fill="none" id="svg_469" stroke="#000000" x1="113.28" x2="113.28" y1="295.78" y2="304.58"/>
  <line fill="none" id="svg_470" stroke="#000000" x1="92.88" x2="113.18" y1="305.18" y2="304.98"/>
  <line fill="none" id="svg_471" stroke="#000000" x1="92.88" x2="93.08" y1="340.96" y2="305.06"/>
  <line fill="none" id="svg_472" stroke="#000000" x1="113.18" x2="93.08" y1="313.76" y2="313.96"/>
  <line fill="none" id="svg_473" stroke="#000000" x1="93.38" x2="113.98" y1="322.82" y2="323.02"/>
  <line fill="none" id="svg_474" stroke="#000000" x1="120.28" x2="120.48" y1="322.32" y2="340.72"/>
  <line fill="none" id="svg_475" stroke="#000000" x1="113.58" x2="113.58" y1="319.78" y2="322.58"/>
  <line fill="none" id="svg_476" stroke="#000000" x1="120.28" x2="120.38" y1="320.22" y2="324.22"/>
  <line fill="none" id="svg_477" stroke="#000000" x1="92.68" x2="149.98" y1="340.38" y2="340.68"/>
  <line fill="none" id="svg_478" stroke="#000000" x1="135.38" x2="149.98" y1="332.56" y2="332.56"/>
  <line fill="none" id="svg_479" stroke="#000000" x1="149.78" x2="149.98" y1="340.66" y2="332.36"/>
  <line fill="none" id="svg_480" stroke="#000000" x1="135.78" x2="135.98" y1="295.02" y2="332.72"/>
  <line fill="none" id="svg_481" stroke="#000000" x1="119.98" x2="125.08" y1="320.42" y2="320.42"/>
  <line fill="none" id="svg_482" stroke="#000000" x1="128.98" x2="135.38" y1="320.22" y2="320.22"/>
  <line fill="none" id="svg_483" stroke="#000000" x1="112.88" x2="121.28" y1="305.06" y2="305.06"/>
  <line fill="none" id="svg_484" stroke="#000000" x1="125.28" x2="130.68" y1="304.98" y2="304.98"/>
  <line fill="none" id="svg_485" stroke="#000000" x1="130.58" x2="130.48" y1="299.78" y2="320.08"/>
  <line fill="none" id="svg_486" stroke="#000000" x1="130.58" x2="130.58" y1="292.12" y2="297.22"/>
  <line fill="none" id="svg_487" stroke="#000000" x1="149.88" x2="130.48" y1="295.42" y2="295.32"/>
  <line fill="none" id="svg_488" stroke="#000000" x1="130.38" x2="130.48" y1="285.58" y2="289.78"/>
  <line fill="none" id="svg_489" stroke="#000000" transform="rotate(0.415779 149.53 279.43)" x1="149.18" x2="149.88" y1="263.38" y2="295.48"/>
  <line fill="none" id="svg_490" stroke="#000000" x1="130.38" x2="149.58" y1="286.88" y2="286.98"/>
  <line fill="none" id="svg_491" stroke="#000000" x1="130.48" x2="130.68" y1="262.82" y2="282.42"/>
  <line fill="none" id="svg_492" stroke="#000000" x1="149.18" x2="130.08" y1="282.32" y2="282.32"/>
  <line fill="none" id="svg_493" stroke="#000000" x1="134.38" x2="145.78" y1="275.32" y2="275.42"/>
  <line fill="none" id="svg_494" stroke="#000000" x1="139.98" x2="140.28" y1="262.92" y2="282.02"/>
  <line fill="none" id="svg_495" stroke="#000000" x1="137.58" x2="142.68" y1="278.42" y2="278.42"/>
  <line fill="none" id="svg_496" stroke="#000000" x1="145.68" x2="145.58" y1="281.92" y2="278.12"/>
  <line fill="none" id="svg_497" stroke="#000000" x1="135.18" x2="135.08" y1="278.02" y2="282.52"/>
  <line fill="none" id="svg_498" stroke="#000000" x1="130.58" x2="133.38" y1="263.18" y2="263.18"/>
  <line fill="none" id="svg_499" stroke="#000000" x1="136.18" x2="143.98" y1="263.38" y2="263.38"/>
  <line fill="none" id="svg_500" stroke="#000000" x1="146.88" x2="150.98" y1="263.28" y2="263.28"/>
  <line fill="none" id="svg_501" stroke="#000000" x1="130.38" x2="149.18" y1="254.42" y2="254.32"/>
  <line fill="none" id="svg_502" stroke="#000000" x1="204.5" x2="149.2" y1="286.86" y2="286.96"/>
  <line fill="none" id="svg_503" stroke="#000000" x1="177.8" x2="204.2" y1="270.58" y2="270.38"/>
  <line fill="none" id="svg_504" stroke="#000000" x1="203.9" x2="204.2" y1="243.88" y2="286.98"/>
  <line fill="none" id="svg_505" stroke="#000000" x1="159.9" x2="160.2" y1="243.82" y2="263.62"/>
  <line fill="none" id="svg_506" stroke="#000000" transform="rotate(1.02466 182.8 243.62)" x1="205.8" x2="159.8" y1="243.32" y2="243.92"/>
  <line fill="none" id="svg_507" stroke="#000000" x1="167.5" x2="167.5" y1="243.42" y2="246.42"/>
  <line fill="none" id="svg_508" stroke="#000000" x1="167.5" x2="167.7" y1="248.82" y2="263.62"/>
  <line fill="none" id="svg_509" stroke="#000000" x1="160" x2="169.1" y1="263.22" y2="263.62"/>
  <line fill="none" id="svg_510" stroke="#000000" x1="172.8" x2="203.7" y1="263.52" y2="263.62"/>
  <line fill="none" id="svg_511" stroke="#000000" x1="149.2" x2="154.5" y1="270.68" y2="270.58"/>
  <line fill="none" id="svg_512" stroke="#000000" x1="156.8" x2="162.3" y1="270.58" y2="270.68"/>
  <line fill="none" id="svg_513" stroke="#000000" x1="164.9" x2="174.2" y1="270.58" y2="270.58"/>
  <line fill="none" id="svg_514" stroke="#000000" x1="158.7" x2="158.8" y1="287.68" y2="270.18"/>
  <line fill="none" id="svg_515" stroke="#000000" x1="168.3" x2="168.2" y1="286.98" y2="270.58"/>
  <line fill="none" id="svg_516" stroke="#000000" x1="148.72" x2="159.82" y1="257.22" y2="257.32"/>
  <line fill="none" id="svg_517" stroke="#000000" x1="149.12" x2="149.12" y1="216.82" y2="257.42"/>
  <line fill="none" id="svg_518" stroke="#000000" x1="130.22" x2="148.92" y1="239.22" y2="238.82"/>
  <line fill="none" id="svg_519" stroke="#000000" x1="130.72" x2="148.82" y1="243.78" y2="243.48"/>
  <line fill="none" id="svg_520" stroke="#000000" x1="130.42" x2="130.62" y1="233.42" y2="239.32"/>
  <line fill="none" id="svg_522" stroke="#000000" x1="130.36" x2="130.46" y1="230.88" y2="225.58"/>
  <line fill="none" id="svg_523" stroke="#000000" x1="130.36" x2="130.36" y1="216.38" y2="222.68"/>
  <line fill="none" id="svg_524" stroke="#000000" x1="149.06" x2="130.16" y1="216.18" y2="216.38"/>
  <line fill="none" id="svg_525" stroke="#000000" x1="130.46" x2="148.76" y1="227.78" y2="227.68"/>
  <line fill="none" id="svg_526" stroke="#000000" x1="149.26" x2="148.96" y1="194.9" y2="218.5"/>
  <line fill="none" id="svg_527" stroke="#000000" x1="129.76" x2="149.16" y1="203.3" y2="203.2"/>
  <line fill="none" id="svg_528" stroke="#000000" x1="130.16" x2="130.06" y1="195.6" y2="203.2"/>
  <line fill="none" id="svg_529" stroke="#000000" x1="141.76" x2="156.46" y1="195.5" y2="195.4"/>
  <line fill="none" id="svg_530" stroke="#000000" x1="138.46" x2="129.86" y1="195.7" y2="195.8"/>
  <line fill="none" id="svg_531" stroke="#000000" x1="130.16" x2="130.16" y1="202.48" y2="206.58"/>
  <line fill="none" id="svg_532" stroke="#000000" x1="130.16" x2="130.26" y1="210.48" y2="216.98"/>
  <line fill="none" id="svg_533" stroke="#000000" x1="130.96" x2="130.86" y1="243.34" y2="246.74"/>
  <line fill="none" id="svg_534" stroke="#000000" x1="130.86" x2="130.86" y1="254.24" y2="251.14"/>
  <line fill="none" id="svg_535" stroke="#000000" x1="160.86" x2="205.96" y1="195.28" y2="195.28"/>
  <line fill="none" id="svg_536" stroke="#000000" x1="205.56" x2="205.56" y1="204.38" y2="194.98"/>
  <line fill="none" id="svg_538" stroke="#000000" x1="205.26" x2="205.56" y1="208.5" y2="243.3"/>
  <line fill="none" id="svg_539" stroke="#000000" x1="92.7" x2="92.9" y1="239.8" y2="247.1"/>
  <path d="m90.96,173.7c-0.1,0.89 -0.3,1.75 -0.41,2.62c-0.11,0.87 -0.2,1.73 -0.31,2.61c-0.1,0.89 -0.22,1.75 -0.31,2.62c-0.09,0.91 -0.22,1.79 -0.41,2.66c-0.2,0.9 -0.34,1.77 -0.49,2.65c-0.15,0.88 -0.35,1.76 -0.51,2.63c-0.15,0.87 -0.2,1.76 -0.32,2.67c-0.12,0.87 -0.25,1.74 -0.35,2.65c-0.1,0.88 -0.16,1.76 -0.26,2.68c-0.1,0.89 -0.16,1.8 -0.21,2.69c-0.05,0.89 -0.15,1.8 -0.2,2.7c-0.05,0.89 0,1.8 0,2.72c0,0.9 0,1.76 0,2.69c0,0.9 0,1.82 0,2.71c0,0.9 -0.03,1.83 0,2.74c0.03,0.88 0.11,1.78 0.23,2.7c0.12,0.87 0.27,1.76 0.39,2.64c0.12,0.92 0.27,1.8 0.42,2.69c0.15,0.89 0.3,1.77 0.47,2.65c0.17,0.87 0.37,1.77 0.53,2.62c0.17,0.89 0.43,1.78 0.61,2.64c0.19,0.88 0.41,1.74 0.64,2.62c0.22,0.86 0.44,1.73 0.69,2.6c0.25,0.85 0.36,1.75 0.7,2.56c0.33,0.8 0.71,1.58 1,2.36l0.22,0.8" fill="none" id="svg_540" stroke="#000000"/>
  <line fill="none" id="svg_541" stroke="#000000" x1="144.6" x2="209.4" y1="172.3" y2="172.7"/>
  <line fill="none" id="svg_542" stroke="#000000" x1="144.5" x2="144.5" y1="173.6" y2="186.8"/>
  <line fill="none" id="svg_543" stroke="#000000" x1="161.3" x2="144.6" y1="186.64" y2="186.64"/>
  <line fill="none" id="svg_544" stroke="#000000" x1="167.6" x2="167.5" y1="172.74" y2="186.64"/>
  <line fill="none" id="svg_545" stroke="#000000" x1="164.3" x2="170.3" y1="186.64" y2="186.54"/>
  <line fill="none" id="svg_546" stroke="#000000" x1="173.8" x2="199.6" y1="186.44" y2="186.54"/>
  <line fill="none" id="svg_547" stroke="#000000" x1="187.1" x2="187.2" y1="172.54" y2="186.64"/>
  <line fill="none" id="svg_548" stroke="#000000" x1="202.7" x2="224.5" y1="186.34" y2="186.14"/>
  <line fill="none" id="svg_549" stroke="#000000" x1="205.8" x2="205.9" y1="172.34" y2="185.94"/>
  <line fill="none" id="svg_550" stroke="#000000" x1="219.2" x2="224.4" y1="173.38" y2="173.48"/>
  <line fill="none" id="svg_551" stroke="#000000" x1="224" x2="224.1" y1="185.98" y2="182.58"/>
  <line fill="none" id="svg_552" stroke="#000000" x1="224.3" x2="224.3" y1="178.28" y2="165.78"/>
  <line fill="none" id="svg_553" stroke="#000000" x1="219.1" x2="219.2" y1="158.04" y2="166.24"/>
  <line fill="none" id="svg_554" stroke="#000000" x1="224.7" x2="218.9" y1="165.64" y2="165.74"/>
  <line fill="none" id="svg_555" stroke="#000000" x1="205.5" x2="244.3" y1="239.02" y2="239.22"/>
  <line fill="none" id="svg_556" stroke="#000000" x1="243.9" x2="243.8" y1="173" y2="239.3"/>
  <line fill="none" id="svg_557" stroke="#000000" x1="221.52" x2="221.62" y1="232.58" y2="202.68"/>
  <line fill="none" id="svg_558" stroke="#000000" x1="221.52" x2="221.42" y1="194.52" y2="199.92"/>
  <line fill="none" id="svg_559" stroke="#000000" x1="243.72" x2="220.92" y1="194.62" y2="194.72"/>
  <line fill="none" id="svg_560" stroke="#000000" x1="221.62" x2="243.72" y1="204.62" y2="204.72"/>
  <line fill="none" id="svg_561" stroke="#000000" x1="241.12" x2="241.02" y1="168.72" y2="173.82"/>
  <line fill="none" id="svg_562" stroke="#000000" x1="243.92" x2="241.32" y1="173.22" y2="173.22"/>
  <line fill="none" id="svg_563" stroke="#000000" x1="219.32" x2="231.82" y1="158.28" y2="158.48"/>
  <line fill="none" id="svg_564" stroke="#000000" x1="224.22" x2="227.42" y1="169.38" y2="169.58"/>
  <line fill="none" id="svg_565" stroke="#000000" x1="232.22" x2="231.92" y1="169.38" y2="158.08"/>
  <line fill="none" id="svg_566" stroke="#000000" x1="238.62" x2="241.02" y1="169.38" y2="169.38"/>
  <line fill="none" id="svg_567" stroke="#000000" x1="234.62" x2="232.32" y1="169.58" y2="169.58"/>
  <line fill="none" id="svg_568" stroke="#000000" x1="231.92" x2="232.02" y1="158.38" y2="155.88"/>
  <line fill="none" id="svg_569" points="null" stroke="#000000" x1="209.25" x2="209.39" y1="172.46" y2="129.56"/>
  <line fill="none" id="svg_570" stroke="#000000" x1="241.72" x2="241.72" y1="168.58" y2="162.18"/>
  <line fill="none" id="svg_571" stroke="#000000" x1="209.22" x2="218.72" y1="158.26" y2="158.26"/>
  <line fill="none" id="svg_572" stroke="#000000" x1="209.02" x2="216.22" y1="172.36" y2="172.36"/>
  <line fill="none" id="svg_573" stroke="#000000" x1="241.22" x2="262.92" y1="168.52" y2="168.42"/>
  <line fill="none" id="svg_574" stroke="#000000" x1="262.52" x2="262.62" y1="130.12" y2="168.42"/>
  <line fill="none" id="svg_575" stroke="#000000" x1="244.32" x2="262.42" y1="140.18" y2="140.08"/>
  <line fill="none" id="svg_576" stroke="#000000" x1="240.92" x2="241.22" y1="127.98" y2="155.78"/>
  <line fill="none" id="svg_577" stroke="#000000" transform="rotate(178.489 253.57 130.52)" x1="244.42" x2="262.72" y1="130.21" y2="130.83"/>
  <line fill="none" id="svg_579" stroke="#000000" x1="240.62" x2="240.92" y1="87.16" y2="124.66"/>
  <line fill="none" id="svg_580" stroke="#000000" x1="262.72" x2="262.62" y1="92.16" y2="132.16"/>
  <line fill="none" id="svg_581" stroke="#000000" x1="240.62" x2="262.22" y1="101.76" y2="101.66"/>
  <line fill="none" id="svg_582" stroke="#000000" x1="231.62" x2="231.62" y1="151.92" y2="148.92"/>
  <line fill="none" id="svg_583" stroke="#000000" x1="209.32" x2="231.62" y1="149.62" y2="149.82"/>
  <line fill="none" id="svg_584" stroke="#000000" transform="rotate(-0.701528 220.97 139.33)" x1="209.32" x2="232.62" y1="139.08" y2="139.58"/>
  <line fill="none" id="svg_585" stroke="#000000" x1="232.02" x2="232.22" y1="134.88" y2="145.08"/>
  <line fill="none" id="svg_586" stroke="#000000" x1="216.42" x2="216.42" y1="134.98" y2="143.88"/>
  <line fill="none" id="svg_587" stroke="#000000" x1="213.82" x2="213.82" y1="143.58" y2="139.38"/>
  <line fill="none" id="svg_588" stroke="#000000" x1="219.02" x2="219.12" y1="135.18" y2="143.88"/>
  <line fill="none" id="svg_589" stroke="#000000" x1="221.42" x2="221.52" y1="134.98" y2="139.78"/>
  <line fill="none" id="svg_590" stroke="#000000" x1="224.12" x2="224.22" y1="134.98" y2="145.58"/>
  <line fill="none" id="svg_591" stroke="#000000" x1="228.92" x2="224.02" y1="144.78" y2="144.68"/>
  <line fill="none" id="svg_592" stroke="#000000" x1="228.02" x2="228.02" y1="138.88" y2="142.68"/>
  <line fill="none" id="svg_593" stroke="#000000" x1="209.42" x2="209.42" y1="91.78" y2="130.98"/>
  <line fill="none" id="svg_594" stroke="#000000" x1="232.52" x2="209.32" y1="130.18" y2="130.38"/>
  <line fill="none" id="svg_595" stroke="#000000" x1="209.42" x2="231.92" y1="110.82" y2="110.72"/>
  <line fill="none" id="svg_596" stroke="#000000" x1="228.22" x2="228.22" y1="114.32" y2="110.72"/>
  <line fill="none" id="svg_597" stroke="#000000" x1="228.32" x2="228.32" y1="118.06" y2="130.66"/>
  <line fill="none" id="svg_598" stroke="#000000" x1="209.52" x2="209.52" y1="53.86" y2="97.06"/>
  <line fill="none" id="svg_599" stroke="#000000" x1="231.92" x2="231.92" y1="61.56" y2="92.96"/>
  <line fill="none" id="svg_600" stroke="#000000" x1="231.62" x2="231.62" y1="99.28" y2="110.98"/>
  <line fill="none" id="svg_601" stroke="#000000" x1="209.42" x2="227.02" y1="91.96" y2="92.36"/>
  <line fill="none" id="svg_602" stroke="#000000" x1="209.22" x2="231.92" y1="82.66" y2="82.96"/>
  <line fill="none" id="svg_603" stroke="#000000" x1="209.42" x2="232.52" y1="53.92" y2="54.12"/>
  <line fill="none" id="svg_604" stroke="#000000" x1="209.52" x2="209.62" y1="15.78" y2="57.08"/>
  <line fill="none" id="svg_605" stroke="#000000" x1="209.42" x2="262.62" y1="16.12" y2="16.42"/>
  <line fill="none" id="svg_606" stroke="#000000" x1="209.22" x2="231.92" y1="25.82" y2="25.92"/>
  <line fill="none" id="svg_607" stroke="#000000" x1="231.42" x2="231.52" y1="15.82" y2="19.12"/>
  <line fill="none" id="svg_608" stroke="#000000" x1="231.42" x2="231.42" y1="22.62" y2="28.02"/>
  <line fill="none" id="svg_609" stroke="#000000" x1="231.72" x2="231.82" y1="31.88" y2="56.88"/>
  <line fill="none" id="svg_610" stroke="#000000" x1="262.62" x2="262.82" y1="24.46" y2="73.76"/>
  <line fill="none" id="svg_611" stroke="#000000" x1="262.82" x2="262.72" y1="94.08" y2="70.08"/>
  <line fill="none" id="svg_612" stroke="#000000" x1="244.42" x2="262.52" y1="92.58" y2="92.98"/>
  <line fill="none" id="svg_613" stroke="#000000" x1="241.02" x2="240.92" y1="83.12" y2="71.52"/>
  <line fill="none" id="svg_614" stroke="#000000" x1="262.62" x2="240.82" y1="73.62" y2="73.72"/>
  <line fill="none" id="svg_615" stroke="#000000" x1="240.82" x2="240.92" y1="42.16" y2="68.16"/>
  <line fill="none" id="svg_616" stroke="#000000" x1="244.72" x2="262.42" y1="54.26" y2="54.46"/>
  <line fill="none" id="svg_617" stroke="#000000" x1="240.82" x2="240.92" y1="23.48" y2="39.38"/>
  <line fill="none" id="svg_618" stroke="#000000" x1="241.12" x2="241.02" y1="15.86" y2="19.46"/>
  <line fill="none" id="svg_619" stroke="#000000" x1="240.92" x2="262.52" y1="25.86" y2="26.06"/>
  <line fill="none" id="svg_620" stroke="#000000" x1="245.02" x2="262.22" y1="44.66" y2="44.56"/>
  <line fill="none" id="svg_621" stroke="#000000" x1="262.62" x2="299.12" y1="24.72" y2="24.52"/>
  <line fill="none" id="svg_622" stroke="#000000" x1="298.62" x2="351.22" y1="36.12" y2="36.02"/>
  <line fill="none" id="svg_623" stroke="#000000" x1="298.82" x2="298.92" y1="24.42" y2="35.92"/>
  <line fill="none" id="svg_624" stroke="#000000" x1="350.62" x2="350.72" y1="6.52" y2="36.12"/>
  <line fill="none" id="svg_625" stroke="#000000" x1="262.72" x2="351.02" y1="6.98" y2="6.68"/>
  <line fill="none" id="svg_626" stroke="#000000" x1="262.32" x2="262.72" y1="16.58" y2="6.38"/>
  <line fill="none" id="svg_627" stroke="#000000" x1="262.22" x2="262.42" y1="19.08" y2="13.28"/>
  <line fill="none" id="svg_628" stroke="#000000" x1="272.22" x2="261.92" y1="18.78" y2="18.98"/>
  <line fill="none" id="svg_629" stroke="#000000" x1="282.32" x2="282.22" y1="6.38" y2="19.78"/>
  <line fill="none" id="svg_630" stroke="#000000" x1="276.42" x2="291.82" y1="19.08" y2="19.28"/>
  <line fill="none" id="svg_631" stroke="#000000" x1="276.42" x2="289.02" y1="16.68" y2="16.58"/>
  <line fill="none" id="svg_632" stroke="#000000" x1="276.22" x2="288.92" y1="13.58" y2="13.68"/>
  <line fill="none" id="svg_633" stroke="#000000" x1="295.02" x2="299.42" y1="19.18" y2="19.08"/>
  <line fill="none" id="svg_634" stroke="#000000" x1="299.22" x2="299.02" y1="6.38" y2="19.08"/>
  <line fill="none" id="svg_635" stroke="#000000" x1="341.22" x2="341.32" y1="11.28" y2="30.18"/>
  <line fill="none" id="svg_636" stroke="#000000" x1="350.42" x2="341.72" y1="21.48" y2="21.68"/>
  <text fill="#000000" font-family="Serif" font-size="4" id="svg_637" stroke="#000000" stroke-width="0" text-anchor="middle" x="269.88" xml:space="preserve" y="14.92">250</text>
  <text fill="#000000" font-family="Serif" font-size="3" id="svg_638" stroke="#000000" stroke-width="0" text-anchor="middle" x="293.08" xml:space="preserve" y="13.82">251</text>
  <text fill="#000000" font-family="Serif" font-size="5" id="svg_639" stroke="#000000" stroke-width="0" text-anchor="middle" x="321.18" xml:space="preserve" y="22.12">Малый спорт зал</text>
  <path d="m218.22,23.25c0.32,0 0.64,0 0.96,-0.01c0,-0.33 0,-0.65 0.01,-0.98c0.32,0 0.63,0 0.95,0c0,-0.33 0,-0.66 0,-0.99c0.33,0 0.65,0 0.98,0c0,-0.32 0,-0.64 0,-0.96c0.32,0 0.64,0 0.96,0c0,-0.32 0,-0.64 0,-0.96c0.48,0 0.96,0 1.43,0c0,0.16 0,0.32 0,0.48c-0.32,0 -0.63,0 -0.95,0c0,0.33 0,0.65 0,0.98c-0.32,0 -0.64,0 -0.96,0c0,0.33 0,0.65 0,0.98c-0.32,0 -0.64,0 -0.96,0c0,0.33 0,0.65 0,0.98c-0.33,0 -0.65,0 -0.98,0c0,0.33 0,0.66 0,0.99c-0.48,0 -0.96,0 -1.45,0c0.02,-0.16 -0.04,-0.34 0.01,-0.49l0,-0.02z" fill="none" id="svg_640" stroke="#000000"/>
  <text fill="#000000" font-family="Serif" font-size="5" id="svg_641" stroke="#000000" stroke-width="0" text-anchor="middle" x="221.32" xml:space="preserve" y="43.02">219</text>
  <text fill="#000000" font-family="Serif" font-size="5" id="svg_642" stroke="#000000" stroke-width="0" text-anchor="middle" x="251.32" xml:space="preserve" y="35.82">220</text>
  <text fill="#000000" font-family="Serif" font-size="5" id="svg_643" stroke="#000000" stroke-width="0" text-anchor="middle" x="251.32" xml:space="preserve" y="64.02">221</text>
  <text fill="#000000" font-family="Serif" font-size="5" id="svg_644" stroke="#000000" stroke-width="0" text-anchor="middle" x="221.22" xml:space="preserve" y="70.58">218</text>
  <text fill="#000000" font-family="Serif" font-size="5" id="svg_645" stroke="#000000" stroke-width="0" text-anchor="middle" x="252.22" xml:space="preserve" y="82.48">222</text>
  <text fill="#000000" font-family="Serif" font-size="5" id="svg_646" stroke="#000000" stroke-width="0" text-anchor="middle" x="251.22" xml:space="preserve" y="115.26">223</text>
  <text fill="#000000" font-family="Serif" font-size="5" id="svg_647" stroke="#000000" stroke-width="0" text-anchor="middle" x="220.92" xml:space="preserve" y="101.86">217</text>
  <text fill="#000000" font-family="Serif" font-size="5" id="svg_648" stroke="#000000" stroke-width="0" text-anchor="middle" x="220.12" xml:space="preserve" y="121.76">216A</text>
  <text fill="#000000" font-family="Serif" font-size="5" id="svg_649" stroke="#000000" stroke-width="0" text-anchor="middle" x="251.42" xml:space="preserve" y="154.66">224</text>
  <text fill="#000000" font-family="Serif" font-size="4" id="svg_650" stroke="#000000" stroke-width="0" text-anchor="middle" x="216.12" xml:space="preserve" y="170.28">215</text>
  <text fill="#000000" font-family="Serif" font-size="4" id="svg_651" stroke="#000000" stroke-width="0" text-anchor="middle" x="233.02" xml:space="preserve" y="200.68">225</text>
  <text fill="#000000" font-family="Serif" font-size="5" id="svg_652" stroke="#000000" stroke-width="0" text-anchor="middle" x="231.92" xml:space="preserve" y="222.16">226</text>
  <text fill="#000000" font-family="Serif" font-size="4" id="svg_653" stroke="#000000" stroke-width="0" text-anchor="middle" x="196.6" xml:space="preserve" y="180.76">214</text>
  <text fill="#000000" font-family="Serif" font-size="4" id="svg_654" stroke="#000000" stroke-width="0" text-anchor="middle" x="177.1" xml:space="preserve" y="181.46">213</text>
  <text fill="#000000" font-family="Serif" font-size="4" id="svg_656" stroke="#000000" stroke-width="0" text-anchor="middle" x="155.8" xml:space="preserve" y="180.26">213At</text>
  <text fill="#000000" font-family="Serif" font-size="8" id="svg_657" stroke="#000000" stroke-width="0" text-anchor="middle" x="177.32" xml:space="preserve" y="220.08">Зимний Сад</text>
  <text fill="#000000" font-family="Serif" font-size="4" id="svg_658" stroke="#000000" stroke-width="0" text-anchor="middle" x="138.72" xml:space="preserve" y="201.38">228</text>
  <text fill="#000000" font-family="Serif" font-size="4" id="svg_659" stroke="#000000" stroke-width="0" text-anchor="middle" x="138.82" xml:space="preserve" y="222.82">231</text>
  <text fill="#000000" font-family="Serif" font-size="4" id="svg_661" stroke="#000000" stroke-width="0" text-anchor="middle" x="139.72" xml:space="preserve" y="234.38">230</text>
  <text fill="#000000" font-family="Serif" font-size="4" id="svg_662" stroke="#000000" stroke-width="0" text-anchor="middle" x="139.62" xml:space="preserve" y="293.78">240</text>
  <text fill="#000000" font-family="Serif" font-size="3" id="svg_663" stroke="#000000" stroke-width="0" text-anchor="middle" x="139.52" xml:space="preserve" y="286.08">239</text>
  <text fill="#000000" font-family="Serif" font-size="6" id="svg_664" stroke="#000000" stroke-width="0" text-anchor="middle" x="183.62" xml:space="preserve" y="255.12">233</text>
  <text fill="#000000" font-family="Serif" font-size="6" id="svg_665" stroke="#000000" stroke-width="0" text-anchor="middle" x="184.22" xml:space="preserve" y="279.02">234</text>
  <text fill="#000000" font-family="Serif" font-size="4" id="svg_666" stroke="#000000" stroke-width="0" text-anchor="middle" x="135.42" xml:space="preserve" y="272.28">238</text>
  <text fill="#000000" font-family="Serif" font-size="4" id="svg_667" stroke="#000000" stroke-width="0" text-anchor="middle" x="145.12" xml:space="preserve" y="272.38">237</text>
  <text fill="#000000" font-family="Serif" font-size="4" id="svg_668" stroke="#000000" stroke-width="0" text-anchor="middle" x="153.82" xml:space="preserve" y="281.38">236</text>
  <text fill="#000000" font-family="Serif" font-size="4" id="svg_669" stroke="#000000" stroke-width="0" text-anchor="middle" x="163.52" xml:space="preserve" y="280.58">235</text>
  <text fill="#000000" font-family="Serif" font-size="2" id="svg_670" stroke="#000000" stroke-width="0" text-anchor="middle" x="133.36" xml:space="preserve" y="310.02">241</text>
  <text fill="#000000" font-family="Serif" font-size="6" id="svg_671" stroke="#000000" stroke-width="0" text-anchor="middle" x="104.86" xml:space="preserve" y="333.12">243</text>
  <text fill="#000000" font-family="Serif" font-size="6" id="svg_672" stroke="#000000" stroke-width="0" text-anchor="middle" x="127.56" xml:space="preserve" y="331.42">242</text>
  <text fill="#000000" font-family="Serif" font-size="4" id="svg_673" stroke="#000000" stroke-width="0" text-anchor="middle" x="103.86" xml:space="preserve" y="311.26">242A</text>
  <text fill="#000000" font-family="Serif" font-size="6" id="svg_674" stroke="#000000" stroke-width="0" text-anchor="middle" x="104.16" xml:space="preserve" y="299.96">244</text>
  <text fill="#000000" font-family="Serif" font-size="6" id="svg_675" stroke="#000000" stroke-width="0" text-anchor="middle" x="103.36" xml:space="preserve" y="274.06">245</text>
  <text fill="#000000" font-family="Serif" font-size="6" id="svg_676" stroke="#000000" stroke-width="0" text-anchor="middle" x="104.36" xml:space="preserve" y="253.38">246</text>
  <text fill="#000000" font-family="Serif" font-size="6" id="svg_677" stroke="#000000" stroke-width="0" text-anchor="middle" x="101.66" xml:space="preserve" y="230.42">247</text>
  <text fill="#000000" font-family="Serif" font-size="6" id="svg_678" stroke="#000000" stroke-width="0" text-anchor="middle" x="101.86" xml:space="preserve" y="208.92">248</text>
  <text fill="#000000" font-family="Serif" font-size="6" id="svg_679" stroke="#000000" stroke-width="0" text-anchor="middle" x="102.26" xml:space="preserve" y="186.82">249</text>
  <text fill="#000000" font-family="Serif" font-size="6" id="svg_680" stroke="#000000" stroke-width="0" text-anchor="middle" x="102.06" xml:space="preserve" y="163.98">201</text>
  <text fill="#000000" font-family="Serif" font-size="6" id="svg_681" stroke="#000000" stroke-width="0" text-anchor="middle" x="100.56" xml:space="preserve" y="139.58">202</text>
  <text fill="#000000" font-family="Serif" font-size="4" id="svg_682" stroke="#000000" stroke-width="0" text-anchor="middle" x="97.66" xml:space="preserve" y="119.38">202A</text>
  <text fill="#000000" font-family="Serif" font-size="6" id="svg_683" stroke="#000000" stroke-width="0" text-anchor="middle" x="133.76" xml:space="preserve" y="121.56">211</text>
  <text fill="#000000" font-family="Serif" font-size="6" id="svg_684" stroke="#000000" stroke-width="0" text-anchor="middle" x="100.96" xml:space="preserve" y="95.86">204</text>
  <text fill="#000000" font-family="Serif" font-size="6" id="svg_685" stroke="#000000" stroke-width="0" text-anchor="middle" x="132.86" xml:space="preserve" y="94.42">210</text>
  <text fill="#000000" font-family="Serif" font-size="6" id="svg_686" stroke="#000000" stroke-width="0" text-anchor="middle" x="133.76" xml:space="preserve" y="64.98">209</text>
  <text fill="#000000" font-family="Serif" font-size="6" id="svg_687" stroke="#000000" stroke-width="0" text-anchor="middle" x="100.86" xml:space="preserve" y="65.02">205</text>
  <text fill="#000000" font-family="Serif" font-size="6" id="svg_688" stroke="#000000" stroke-width="0" text-anchor="middle" x="100.36" xml:space="preserve" y="40.42">206</text>
  <text fill="#000000" font-family="Serif" font-size="6" id="svg_689" stroke="#000000" stroke-width="0" text-anchor="middle" x="133.26" xml:space="preserve" y="40.46">208</text>
  <text fill="#000000" font-family="Serif" font-size="6" id="svg_690" stroke="#000000" stroke-width="0" text-anchor="middle" x="100.86" xml:space="preserve" y="20.12">207</text>
  <path d="m128.99,155.29c0.31,0 0.62,0 0.93,-0.01c0,-0.32 0,-0.64 0.01,-0.96c0.31,0 0.62,0 0.93,0c0,-0.32 0,-0.64 0,-0.97c0.32,0 0.64,0 0.95,0c0,-0.31 0,-0.63 0,-0.94c0.31,0 0.63,0 0.94,0c0,-0.31 0,-0.63 0,-0.94c0.47,0 0.93,0 1.4,0c0,0.16 0,0.31 0,0.47c-0.31,0 -0.62,0 -0.93,0c0,0.32 0,0.64 0,0.95c-0.31,0 -0.63,0 -0.94,0c0,0.32 0,0.64 0,0.95c-0.31,0 -0.63,0 -0.94,0c0,0.32 0,0.64 0,0.95c-0.32,0 -0.64,0 -0.95,0c0,0.32 0,0.64 0,0.97c-0.47,0 -0.94,0 -1.41,0c0.02,-0.16 -0.04,-0.33 0.01,-0.48l0,0.01z" fill="none" id="svg_691" stroke="#000000"/>
  <path d="m134.87,212.7c0.49,0 0.99,-0.01 1.48,-0.01c0,-0.51 0.01,-1.01 0.01,-1.52c0.49,0 0.98,0 1.47,0c0,-0.51 0,-1.02 0,-1.53c0.5,0 1.01,0 1.51,0c0,-0.5 0,-0.99 0,-1.49c0.5,0 0.99,0 1.49,0c0,-0.5 0,-0.99 0,-1.49c0.74,0 1.48,0 2.22,0c0,0.25 0,0.5 0,0.75c-0.49,0 -0.98,0 -1.47,0c0,0.5 0,1.01 0,1.51c-0.5,0 -0.99,0 -1.49,0c0,0.5 0,1.01 0,1.51c-0.5,0 -0.99,0 -1.49,0c0,0.5 0,1.01 0,1.51c-0.5,0 -1.01,0 -1.51,0c0,0.51 0,1.02 0,1.53c-0.75,0 -1.49,0 -2.24,0c0.03,-0.25 -0.06,-0.53 0.02,-0.76l0,-0.01z" fill="none" id="svg_692" stroke="#000000"/>
  <path d="m135.07,252.18c0.43,0 0.86,-0.01 1.28,-0.01c0,-0.44 0.01,-0.88 0.01,-1.32c0.43,0 0.85,0 1.28,0c0,-0.44 0,-0.88 0,-1.33c0.44,0 0.87,0 1.31,0c0,-0.43 0,-0.86 0,-1.29c0.43,0 0.86,0 1.29,0c0,-0.43 0,-0.86 0,-1.29c0.64,0 1.28,0 1.92,0c0,0.22 0,0.43 0,0.65c-0.43,0 -0.85,0 -1.28,0c0,0.44 0,0.87 0,1.31c-0.43,0 -0.86,0 -1.29,0c0,0.44 0,0.87 0,1.31c-0.43,0 -0.86,0 -1.29,0c0,0.44 0,0.87 0,1.31c-0.44,0 -0.87,0 -1.31,0c0,0.44 0,0.88 0,1.33c-0.65,0 -1.29,0 -1.94,0c0.03,-0.21 -0.05,-0.46 0.02,-0.66l0,-0.01z" fill="none" id="svg_693" stroke="#000000"/>
  <path d="m99.93,319.68c0.26,0 0.52,0 0.78,-0.01c0,-0.27 0,-0.54 0.01,-0.8c0.26,0 0.52,0 0.78,0c0,-0.27 0,-0.54 0,-0.81c0.27,0 0.53,0 0.8,0c0,-0.26 0,-0.53 0,-0.79c0.26,0 0.53,0 0.79,0c0,-0.26 0,-0.53 0,-0.79c0.39,0 0.78,0 1.17,0c0,0.13 0,0.26 0,0.39c-0.26,0 -0.52,0 -0.78,0c0,0.27 0,0.53 0,0.8c-0.26,0 -0.53,0 -0.79,0c0,0.27 0,0.53 0,0.8c-0.26,0 -0.53,0 -0.79,0c0,0.27 0,0.53 0,0.8c-0.27,0 -0.53,0 -0.8,0c0,0.27 0,0.54 0,0.81c-0.39,0 -0.79,0 -1.18,0c0.02,-0.13 -0.03,-0.28 0.01,-0.4z" fill="none" id="svg_694" stroke="#000000"/>
  <path d="m129.89,17.37c0.34,0 0.68,0 1.02,-0.01c0,-0.35 0,-0.7 0.01,-1.05c0.34,0 0.68,0 1.02,0c0,-0.35 0,-0.7 0,-1.06c0.35,0 0.7,0 1.04,0c0,-0.34 0,-0.69 0,-1.03c0.34,0 0.69,0 1.03,0c0,-0.34 0,-0.69 0,-1.03c0.51,0 1.02,0 1.53,0c0,0.17 0,0.34 0,0.52c-0.34,0 -0.68,0 -1.02,0c0,0.35 0,0.7 0,1.04c-0.34,0 -0.69,0 -1.03,0c0,0.35 0,0.7 0,1.04c-0.34,0 -0.69,0 -1.03,0c0,0.35 0,0.7 0,1.04c-0.35,0 -0.7,0 -1.04,0c0,0.35 0,0.7 0,1.06c-0.52,0 -1.03,0 -1.55,0c0.02,-0.17 -0.04,-0.36 0.01,-0.53l0.01,0.01z" fill="none" id="svg_695" stroke="#000000"/>
 </g>
</svg>
