<?xml version="1.0"?>
<svg width="640" height="479.99999999999994" xmlns="http://www.w3.org/2000/svg" xmlnssvg="http://www.w3.org/2000/svg">
 <!-- Created with SVG-edit - https://github.com/SVG-Edit/svgedit-->
 <g class="layer">
  <title>Layer 1</title>
  <line fill="none" id="svg_4" stroke="#000000" stroke-width="1l" transform="matrix(1 0 0 1 0 0)" x1="28.74" x2="28.52" y1="32.39" y2="101.09"/>
  <line fill="none" id="svg_5" stroke="#000000" x1="28.83" x2="113.83" y1="32.72" y2="33.41"/>
  <line fill="none" id="svg_7" stroke="#000000" x1="28.66" x2="62.45" y1="64.45" y2="64.62"/>
  <line fill="none" id="svg_8" stroke="#000000" x1="28.31" x2="62.1" y1="95.97" y2="96.31"/>
  <line fill="none" id="svg_10" stroke="#000000" x1="28.31" x2="27.97" y1="99.28" y2="174.79"/>
  <line fill="none" id="svg_11" stroke="#000000" x1="62.1" x2="61.93" y1="107.72" y2="148.41"/>
  <line fill="none" id="svg_12" stroke="#000000" x1="28.14" x2="61.59" y1="141.69" y2="141.86"/>
  <line fill="none" id="svg_13" stroke="#000000" x1="77.97" x2="77.97" y1="46.24" y2="56.59"/>
  <line fill="none" id="svg_14" stroke="#000000" x1="77.79" x2="77.62" y1="60.9" y2="86.24"/>
  <line fill="none" id="svg_15" stroke="#000000" x1="77.28" x2="77.28" y1="92.28" y2="118.83"/>
  <line fill="none" id="svg_16" stroke="#000000" x1="77.28" x2="77.28" y1="124.79" y2="148.93"/>
  <line fill="none" id="svg_17" stroke="#000000" x1="113.14" x2="112.45" y1="33.55" y2="128.03"/>
  <line fill="none" id="svg_18" stroke="#000000" x1="77.97" x2="112.45" y1="65.28" y2="65.28"/>
  <line fill="none" id="svg_19" stroke="#000000" x1="78.41" x2="113.13" y1="49.43" y2="49.89"/>
  <line fill="none" id="svg_20" stroke="#000000" x1="77.15" x2="112.67" y1="96.21" y2="96.21"/>
  <line fill="none" id="svg_21" stroke="#000000" x1="77.38" x2="112.67" y1="126.9" y2="127.01"/>
  <line fill="none" id="svg_22" stroke="#000000" x1="77.03" x2="77.03" y1="152.44" y2="180.25"/>
  <line fill="none" id="svg_23" stroke="#000000" x1="112.55" x2="112.09" y1="127.38" y2="181.63"/>
  <line fill="none" id="svg_24" stroke="#000000" transform="matrix(1 0 0 1 0 0)" x1="77.15" x2="112.21" y1="157.26" y2="157.26"/>
  <line fill="none" id="svg_25" stroke="#000000" transform="matrix(1 0 0 1 0 0)" x1="62.78" x2="62.9" y1="68.39" y2="41.38"/>
  <line fill="none" id="svg_26" stroke="#000000" transform="matrix(1 0 0 1 0 0)" x1="62.67" x2="62.55" y1="74.97" y2="100.25"/>
  <line fill="none" id="svg_27" stroke="#000000" x1="27.95" x2="27.84" y1="173.33" y2="196.09"/>
  <line fill="none" id="svg_28" stroke="#000000" x1="61.63" x2="61.63" y1="153.36" y2="188.99"/>
  <line fill="none" id="svg_29" stroke="#000000" x1="27.72" x2="61.4" y1="188.3" y2="188.41"/>
  <line fill="none" id="svg_30" stroke="#000000" x1="27.61" x2="27.03" y1="195.43" y2="250.83"/>
  <line fill="none" id="svg_32" stroke="#000000" x1="27.26" x2="52.9" y1="218.41" y2="218.87"/>
  <line fill="none" id="svg_33" stroke="#000000" x1="49.68" x2="49.68" y1="198.97" y2="188.16"/>
  <line fill="none" id="svg_34" stroke="#000000" x1="49.68" x2="49.45" y1="204.94" y2="218.51"/>
  <line fill="none" id="svg_35" stroke="#000000" x1="26.69" x2="61.63" y1="249.77" y2="249.89"/>
  <line fill="none" id="svg_36" stroke="#000000" x1="61.17" x2="61.06" y1="218.51" y2="249.54"/>
  <line fill="none" id="svg_37" opacity="0.5" stroke="#000000" x1="64.97" x2="64.97" y1="238.97" y2="238.97"/>
  <line fill="none" id="svg_38" stroke="#000000" transform="matrix(1 0 0 1 0 0)" x1="26.92" x2="26.8" y1="250.48" y2="288.41"/>
  <line fill="none" id="svg_39" stroke="#000000" transform="matrix(1 0 0 1 0 0)" x1="26.69" x2="61.75" y1="287.66" y2="287.89"/>
  <line fill="none" id="svg_40" stroke="#000000" x1="61.17" x2="60.94" y1="259.38" y2="287.89"/>
  <line fill="none" id="svg_41" stroke="#000000" x1="76.34" x2="76.46" y1="184.25" y2="210.23"/>
  <line fill="none" id="svg_42" stroke="#000000" x1="111.86" x2="111.63" y1="180.02" y2="221.17"/>
  <line fill="none" id="svg_43" stroke="#000000" x1="76.34" x2="111.75" y1="188.07" y2="188.41"/>
  <line fill="none" id="svg_44" stroke="#000000" x1="76" x2="76" y1="213.98" y2="220.87"/>
  <line fill="none" id="svg_45" stroke="#000000" transform="matrix(1 0 0 1 0 0)" x1="111.63" x2="76.11" y1="219.15" y2="219.15"/>
  <line fill="none" id="svg_46" stroke="#000000" x1="75.77" x2="75.66" y1="224.74" y2="241.63"/>
  <line fill="none" id="svg_47" stroke="#000000" x1="111.75" x2="111.63" y1="219.91" y2="264.16"/>
  <line fill="none" id="svg_48" stroke="#000000" x1="75.89" x2="111.4" y1="233.47" y2="233.82"/>
  <line fill="none" id="svg_49" stroke="#000000" x1="100.48" x2="100.71" y1="227.72" y2="239.91"/>
  <line fill="none" id="svg_50" stroke="#000000" x1="96.34" x2="96.23" y1="227.84" y2="239.79"/>
  <line fill="none" id="svg_51" stroke="#000000" x1="91.98" x2="92.09" y1="228.3" y2="233.24"/>
  <line fill="none" id="svg_52" stroke="#000000" x1="88.3" x2="88.3" y1="227.72" y2="233.47"/>
  <line fill="none" id="svg_53" stroke="#000000" x1="104.97" x2="104.85" y1="233.36" y2="239.91"/>
  <line fill="none" id="svg_54" stroke="#000000" x1="81.52" x2="86.34" y1="240.94" y2="241.06"/>
  <line fill="none" id="svg_55" stroke="#000000" x1="86.34" x2="86.46" y1="233.59" y2="241.4"/>
  <line fill="none" id="svg_56" stroke="#000000" x1="82.32" x2="82.32" y1="233.59" y2="237.84"/>
  <line fill="none" id="svg_57" stroke="#000000" x1="75.66" x2="111.4" y1="249.22" y2="249.22"/>
  <line fill="none" id="svg_58" stroke="#000000" x1="75.54" x2="75.77" y1="255.2" y2="248.99"/>
  <line fill="none" id="svg_59" stroke="#000000" x1="75.08" x2="74.97" y1="261.52" y2="264.74"/>
  <line fill="none" id="svg_60" stroke="#000000" x1="72.55" x2="112.21" y1="264.85" y2="264.51"/>
  <line fill="none" id="svg_61" stroke="#000000" x1="60.94" x2="65.2" y1="265.08" y2="265.08"/>
  <line fill="none" id="svg_62" stroke="#000000" x1="74.85" x2="74.85" y1="280" y2="286.78"/>
  <line fill="none" id="svg_63" stroke="#000000" x1="103.82" x2="74.51" y1="287.24" y2="286.78"/>
  <line fill="none" id="svg_64" stroke="#000000" x1="89.56" x2="98.41" y1="281.49" y2="281.49"/>
  <line fill="none" id="svg_65" stroke="#000000" x1="97.84" x2="98.18" y1="264.48" y2="281.84"/>
  <line fill="none" id="svg_66" stroke="#000000" x1="87.38" x2="87.38" y1="273.1" y2="276.78"/>
  <line fill="none" id="svg_68" stroke="#000000" x1="87.26" x2="97.84" y1="276.21" y2="276.21"/>
  <line fill="none" id="svg_69" stroke="#000000" x1="103.93" x2="103.59" y1="272.53" y2="286.9"/>
  <line fill="none" id="svg_70" stroke="#000000" transform="matrix(1 0 0 1 0 0) matrix(0.999926 0.0121857 -0.0121857 0.999926 3.49757 -1.33695)" x1="111.17" x2="111.75" y1="264.16" y2="308.53"/>
  <line fill="none" id="svg_71" stroke="#000000" x1="22.44" x2="53.7" y1="343.17" y2="343.63"/>
  <line fill="none" id="svg_73" stroke="#000000" transform="matrix(1 0 0 1 0 0)" x1="61.17" x2="61.29" y1="302.18" y2="358.16"/>
  <line fill="none" id="svg_75" stroke="#000000" x1="22.9" x2="60.71" y1="356.8" y2="357.15"/>
  <line fill="none" id="svg_76" stroke="#000000" x1="86.46" x2="86.46" y1="321.22" y2="341.56"/>
  <line fill="none" id="svg_77" stroke="#000000" x1="118.53" x2="105.54" y1="321.22" y2="321.1"/>
  <line fill="none" id="svg_78" stroke="#000000" x1="101.17" x2="86" y1="320.76" y2="320.76"/>
  <line fill="none" id="svg_79" stroke="#000000" x1="86.46" x2="118.07" y1="334.09" y2="333.75"/>
  <line fill="none" id="svg_80" stroke="#000000" x1="117.95" x2="118.18" y1="320.76" y2="357.2"/>
  <line fill="none" id="svg_81" stroke="#000000" x1="86" x2="86.11" y1="348.11" y2="371.1"/>
  <line fill="none" id="svg_82" stroke="#000000" transform="matrix(1 0 0 1 0 0)" x1="118.18" x2="86" y1="356.05" y2="355.82"/>
  <line fill="none" id="svg_83" stroke="#000000" x1="86" x2="86.23" y1="375.06" y2="391.15"/>
  <line fill="none" id="svg_84" stroke="#000000" x1="117.95" x2="118.18" y1="355.52" y2="391.95"/>
  <line fill="none" id="svg_85" stroke="#000000" transform="matrix(1 0 0 1 0 0)" x1="85.86" x2="117.82" y1="390.25" y2="390.83"/>
  <path d="m26.57,286.99c-0.02,1 -0.18,1.77 -0.34,2.62c-0.16,0.87 -0.23,1.73 -0.23,2.64c0,0.89 -0.28,1.67 -0.34,2.55c-0.06,0.9 -0.09,1.78 -0.2,2.66c-0.11,0.87 -0.01,1.75 -0.15,2.61c-0.14,0.87 -0.48,1.69 -0.63,2.56c-0.14,0.81 -0.34,1.67 -0.51,2.52c-0.17,0.85 -0.39,1.69 -0.56,2.56c-0.16,0.85 -0.06,1.74 -0.13,2.66c-0.07,0.87 -0.3,1.71 -0.46,2.57c-0.16,0.88 -0.17,1.78 -0.28,2.59c-0.12,0.9 -0.07,1.79 -0.07,2.66c0,0.89 -0.09,1.79 -0.11,2.66c-0.02,0.9 -0.11,1.74 -0.23,2.62c-0.12,0.92 -0.17,1.8 -0.24,2.65c-0.07,0.88 0.01,1.79 -0.11,2.69c-0.12,0.82 -0.23,1.67 -0.23,2.6c0,0.9 0,1.75 0,2.65c0,0.91 0,1.79 0,2.68c0,0.89 0,1.79 0,2.66c0,0.9 0,1.77 0,2.66c0,0.89 0,1.8 0,2.68c0,0.89 0,1.8 0,2.67c0,0.87 0,1.78 0,2.67c0,0.9 -0.12,1.77 0,2.64c0.12,0.87 0.29,1.75 0.34,2.58c0.06,0.87 0,1.77 0.12,2.6c0.11,0.82 0.29,1.66 0.34,2.56c0.06,0.89 0.11,1.76 0.11,2.64c0,0.88 0,1.77 0,2.66c0,0.89 0.02,1.78 0.26,2.59c0.24,0.81 0.44,1.68 0.56,2.59c0.12,0.89 0.29,1.74 0.43,2.62c0.14,0.83 0.31,1.67 0.48,2.57c0.16,0.85 0.28,1.72 0.34,2.62c0.06,0.88 0.2,1.72 0.34,2.6c0.14,0.85 0.41,1.66 0.57,2.45c0.18,0.86 0.42,1.61 0.68,2.48c0.24,0.81 0.59,1.61 0.82,2.35l0.26,0.78l0.36,0.68" fill="none" id="svg_89" stroke="#000000" transform="matrix(1 0 0 1 0 0)"/>
  <line fill="none" id="svg_90" stroke="#000000" x1="27.92" x2="27.46" y1="389.69" y2="460.5"/>
  <line fill="none" id="svg_91" stroke="#000000" x1="203.36" x2="27.15" y1="460.18" y2="460.52"/>
  <line fill="none" id="svg_92" stroke="#000000" x1="27.5" x2="33.7" y1="430" y2="430.11"/>
  <line fill="none" id="svg_93" stroke="#000000" x1="39.8" x2="39.34" y1="429.77" y2="459.89"/>
  <line fill="none" id="svg_94" stroke="#000000" x1="64.85" x2="39.68" y1="430" y2="430.34"/>
  <line fill="none" id="svg_95" stroke="#000000" x1="62.44" x2="62.44" y1="412.87" y2="429.89"/>
  <line fill="none" id="svg_96" stroke="#000000" transform="matrix(1 0 0 1 0 0)" x1="61.4" x2="60.95" y1="367.83" y2="398.52"/>
  <line fill="none" id="svg_97" stroke="#000000" transform="matrix(1 0 0 1 0 0)" x1="28.07" x2="62.9" y1="398.63" y2="398.86"/>
  <line fill="none" id="svg_98" stroke="#000000" x1="117.61" x2="117.5" y1="389.49" y2="417.42"/>
  <line fill="none" id="svg_99" stroke="#000000" x1="84.97" x2="85.08" y1="413.17" y2="417.65"/>
  <line fill="none" id="svg_100" stroke="#000000" x1="145.89" x2="146" y1="409.37" y2="417.19"/>
  <line fill="none" id="svg_101" stroke="#000000" x1="84.85" x2="146" y1="416.96" y2="417.08"/>
  <line fill="none" id="svg_102" stroke="#000000" transform="matrix(1 0 0 1 0 0)" x1="85.43" x2="85.31" y1="397.48" y2="405.53"/>
  <line fill="none" id="svg_103" stroke="#000000" x1="85.43" x2="117.38" y1="397.25" y2="397.94"/>
  <line fill="none" id="svg_104" stroke="#000000" x1="146.12" x2="146" y1="390.82" y2="403.69"/>
  <line fill="none" id="svg_105" stroke="#000000" x1="117.15" x2="158.3" y1="390.38" y2="391.07"/>
  <line fill="none" id="svg_106" stroke="#000000" x1="71.63" x2="81.17" y1="430" y2="430.23"/>
  <line fill="none" id="svg_108" stroke="#000000" x1="80.6" x2="80.26" y1="429.77" y2="460.23"/>
  <line fill="none" id="svg_109" stroke="#000000" x1="87.96" x2="108.07" y1="430.92" y2="430.92"/>
  <line fill="none" id="svg_110" stroke="#000000" x1="99.91" x2="100.03" y1="460.46" y2="430.57"/>
  <line fill="none" id="svg_111" stroke="#000000" x1="86.69" x2="110.26" y1="438.51" y2="438.85"/>
  <line fill="none" id="svg_112" stroke="#000000" x1="94.74" x2="104.62" y1="446.32" y2="446.55"/>
  <line fill="none" id="svg_113" stroke="#000000" x1="94.74" x2="104.74" y1="450.69" y2="450.69"/>
  <line fill="none" id="svg_114" stroke="#000000" x1="94.05" x2="104.74" y1="454.94" y2="454.94"/>
  <line fill="none" id="svg_115" stroke="#000000" x1="116.69" x2="117.04" y1="430.11" y2="460.23"/>
  <line fill="none" id="svg_116" stroke="#000000" x1="120.49" x2="116.81" y1="430.84" y2="430.61"/>
  <line fill="none" id="svg_117" stroke="#000000" x1="126.81" x2="164.74" y1="430.5" y2="430.38"/>
  <line fill="none" id="svg_119" stroke="#000000" x1="145.66" x2="145.89" y1="430.15" y2="460.15"/>
  <line fill="none" id="svg_120" stroke="#000000" x1="174.74" x2="174.62" y1="390.75" y2="405.7"/>
  <line fill="none" id="svg_121" stroke="#000000" x1="174.16" x2="174.51" y1="408.8" y2="423.51"/>
  <line fill="none" id="svg_122" stroke="#000000" x1="170.72" x2="175.08" y1="429.89" y2="430.11"/>
  <line fill="none" id="svg_123" stroke="#000000" x1="174.16" x2="174.51" y1="459.2" y2="428.74"/>
  <line fill="none" id="svg_124" stroke="#000000" x1="174.28" x2="203.13" y1="414.83" y2="414.83"/>
  <line fill="none" id="svg_125" stroke="#000000" x1="203.4" x2="202.82" y1="460.38" y2="391.42"/>
  <line fill="none" id="svg_126" stroke="#000000" x1="166.04" x2="267.99" y1="391.76" y2="391.3"/>
  <line fill="none" id="svg_127" stroke="#000000" x1="62.45" x2="62.34" y1="398.17" y2="406.56"/>
  <line fill="none" id="svg_128" stroke="#000000" x1="60.96" x2="71.88" y1="391.1" y2="391.33"/>
  <line fill="none" id="svg_129" stroke="#000000" x1="79.35" x2="86.25" y1="390.75" y2="390.87"/>
  <line fill="none" id="svg_130" stroke="#000000" x1="126.4" x2="126.74" y1="331.07" y2="381.65"/>
  <line fill="none" id="svg_131" stroke="#000000" x1="197.2" x2="197.78" y1="331.76" y2="382.11"/>
  <line fill="none" id="svg_132" stroke="#000000" x1="126.28" x2="197.66" y1="331.3" y2="331.53"/>
  <line fill="none" id="svg_133" stroke="#000000" x1="126.74" x2="198.12" y1="380.84" y2="381.76"/>
  <line fill="none" id="svg_134" stroke="#000000" x1="117.78" x2="129.85" y1="321.14" y2="321.48"/>
  <line fill="none" id="svg_135" stroke="#000000" x1="135.71" x2="206.74" y1="321.48" y2="322.06"/>
  <line fill="none" id="svg_136" stroke="#000000" x1="206.17" x2="206.4" y1="336.77" y2="321.48"/>
  <line fill="none" id="svg_137" stroke="#000000" x1="206.4" x2="207.32" y1="342.68" y2="391.53"/>
  <line fill="none" id="svg_138" stroke="#000000" x1="111.57" x2="222.03" y1="287.69" y2="288.26"/>
  <line fill="none" id="svg_139" stroke="#000000" x1="110.88" x2="136.63" y1="307.69" y2="307.92"/>
  <line fill="none" id="svg_140" stroke="#000000" x1="142.49" x2="151.23" y1="308.26" y2="308.15"/>
  <line fill="none" id="svg_141" stroke="#000000" x1="156.05" x2="196.86" y1="308.38" y2="308.38"/>
  <line fill="none" id="svg_142" stroke="#000000" x1="200.88" x2="222.95" y1="308.26" y2="308.26"/>
  <line fill="none" id="svg_143" stroke="#000000" x1="146.05" x2="146.51" y1="287.46" y2="307.69"/>
  <line fill="none" id="svg_144" stroke="#000000" x1="176.86" x2="176.97" y1="287.46" y2="307.69"/>
  <line fill="none" id="svg_145" stroke="#000000" x1="205.71" x2="205.94" y1="288.03" y2="307.46"/>
  <line fill="none" id="svg_146" stroke="#000000" x1="230.6" x2="230.72" y1="381.05" y2="334.15"/>
  <line fill="none" id="svg_147" stroke="#000000" x1="230.49" x2="230.6" y1="321.8" y2="329.39"/>
  <line fill="none" id="svg_148" stroke="#000000" transform="matrix(1 0 0 1 0 0)" x1="266.7" x2="230.03" y1="322.26" y2="322.03"/>
  <line fill="none" id="svg_149" stroke="#000000" transform="matrix(1 0 0 1 0 0)" x1="230.72" x2="266.53" y1="337.89" y2="337.89"/>
  <line fill="none" id="svg_150" stroke="#000000" transform="matrix(1 0 0 1 0 0)" x1="265.83" x2="267.06" y1="288.87" y2="391.17"/>
  <line fill="none" id="svg_151" stroke="#000000" x1="227.41" x2="235.01" y1="308.69" y2="308.69"/>
  <line fill="none" id="svg_152" stroke="#000000" x1="234.48" x2="234.88" y1="273.09" y2="308.83"/>
  <line fill="none" id="svg_153" stroke="#000000" x1="211.95" x2="211.55" y1="215.71" y2="288.51"/>
  <line fill="none" id="svg_154" stroke="#000000" x1="224.35" x2="224.35" y1="264.51" y2="276.37"/>
  <line fill="none" id="svg_155" stroke="#000000" x1="234.35" x2="224.35" y1="275.95" y2="275.81"/>
  <line fill="none" id="svg_156" stroke="#000000" x1="211.55" x2="234.48" y1="264.88" y2="264.75"/>
  <line fill="none" id="svg_157" stroke="#000000" x1="234.48" x2="234.35" y1="267.68" y2="265.01"/>
  <line fill="none" id="svg_158" stroke="#000000" x1="247.81" x2="248.08" y1="260.48" y2="282.88"/>
  <line fill="none" id="svg_159" stroke="#000000" x1="234.35" x2="247.28" y1="264.75" y2="264.75"/>
  <line fill="none" id="svg_160" stroke="#000000" x1="234.48" x2="241.41" y1="282.48" y2="282.48"/>
  <line fill="none" id="svg_161" stroke="#000000" x1="257.15" x2="302.21" y1="282.35" y2="282.88"/>
  <line fill="none" id="svg_162" stroke="#000000" x1="260.48" x2="260.61" y1="282.24" y2="289.84"/>
  <line fill="none" id="svg_163" stroke="#000000" x1="265.81" x2="260.75" y1="289.31" y2="289.31"/>
  <line fill="none" id="svg_164" opacity="0.5" stroke="#000000" x1="271.55" x2="271.55" y1="286.77" y2="286.77"/>
  <line fill="none" id="svg_165" stroke="#000000" x1="272.61" x2="272.88" y1="249.17" y2="263.57"/>
  <line fill="none" id="svg_166" stroke="#000000" x1="272.35" x2="272.61" y1="269.57" y2="282.37"/>
  <line fill="none" id="svg_167" stroke="#000000" x1="272.48" x2="301.15" y1="249.44" y2="249.44"/>
  <line fill="none" id="svg_168" stroke="#000000" x1="211.28" x2="248.21" y1="249.28" y2="249.95"/>
  <line fill="none" id="svg_169" stroke="#000000" x1="236.08" x2="236.08" y1="233.49" y2="243.36"/>
  <line fill="none" id="svg_170" stroke="#000000" x1="221.28" x2="221.15" y1="225.09" y2="239.23"/>
  <line fill="none" id="svg_171" stroke="#000000" x1="211.55" x2="248.35" y1="231.49" y2="232.16"/>
  <line fill="none" id="svg_172" stroke="#000000" x1="248.35" x2="248.48" y1="224.03" y2="241.36"/>
  <line fill="none" id="svg_173" stroke="#000000" x1="236.48" x2="242.61" y1="240.96" y2="240.96"/>
  <line fill="none" id="svg_174" stroke="#000000" x1="225.55" x2="225.41" y1="224.69" y2="238.96"/>
  <line fill="none" id="svg_175" stroke="#000000" x1="230.21" x2="230.21" y1="224.96" y2="230.96"/>
  <line fill="none" id="svg_176" stroke="#000000" x1="234.48" x2="234.61" y1="225.09" y2="230.56"/>
  <line fill="none" id="svg_177" stroke="#000000" x1="216.35" x2="216.48" y1="230.96" y2="238.43"/>
  <line fill="none" id="svg_178" stroke="#000000" transform="matrix(1 0 0 1 0 0)" x1="247.55" x2="247.68" y1="249.84" y2="254.24"/>
  <line fill="none" id="svg_179" stroke="#000000" x1="263.52" x2="263.39" y1="193.01" y2="250.48"/>
  <line fill="none" id="svg_180" stroke="#000000" x1="271.52" x2="301.25" y1="215.68" y2="215.81"/>
  <line fill="none" id="svg_181" stroke="#000000" transform="matrix(1 0 0 1 0 0)" x1="263.65" x2="300.99" y1="199.36" y2="199.76"/>
  <line fill="none" id="svg_182" stroke="#000000" x1="300.72" x2="301.25" y1="282.77" y2="215.31"/>
  <line fill="none" id="svg_183" stroke="#000000" transform="matrix(1 0 0 1 0 0)" x1="300.85" x2="300.99" y1="166.48" y2="218.35"/>
  <line fill="none" id="svg_184" opacity="0.5" stroke="#000000" x1="314.19" x2="314.19" y1="205.28" y2="205.28"/>
  <line fill="none" id="svg_185" stroke="#000000" x1="211.25" x2="211.52" y1="149.36" y2="217.63"/>
  <line fill="none" id="svg_186" stroke="#000000" x1="247.65" x2="247.65" y1="177.09" y2="216.43"/>
  <line fill="none" id="svg_187" stroke="#000000" transform="matrix(1 0 0 1 0 0)" x1="211.65" x2="247.39" y1="215.89" y2="215.89"/>
  <line fill="none" id="svg_188" stroke="#000000" x1="211.12" x2="247.39" y1="165.97" y2="166.11"/>
  <line fill="none" id="svg_189" stroke="#000000" x1="248.05" x2="247.92" y1="127.57" y2="171.04"/>
  <line fill="none" id="svg_190" stroke="#000000" x1="211.39" x2="239.39" y1="149.84" y2="149.97"/>
  <line fill="none" id="svg_191" stroke="#000000" x1="211.12" x2="211.12" y1="82.37" y2="153.17"/>
  <line fill="none" id="svg_192" stroke="#000000" x1="248.99" x2="248.59" y1="122.37" y2="94.91"/>
  <line fill="none" id="svg_193" stroke="#000000" x1="211.12" x2="248.72" y1="116.91" y2="116.51"/>
  <line fill="none" id="svg_194" stroke="#000000" x1="211.12" x2="240.05" y1="83.01" y2="83.81"/>
  <line fill="none" id="svg_195" stroke="#000000" x1="247.92" x2="248.45" y1="84.61" y2="45.01"/>
  <line fill="none" id="svg_196" stroke="#000000" x1="211.25" x2="240.19" y1="66.48" y2="67.01"/>
  <line fill="none" id="svg_197" stroke="#000000" x1="211.39" x2="211.12" y1="13.89" y2="84.43"/>
  <line fill="none" id="svg_198" stroke="#000000" x1="210.99" x2="248.19" y1="32.64" y2="32.77"/>
  <line fill="none" id="svg_199" stroke="#000000" x1="211.65" x2="302.05" y1="14.24" y2="15.17"/>
  <line fill="none" id="svg_200" stroke="#000000" x1="248.45" x2="248.45" y1="14.24" y2="21.04"/>
  <line fill="none" id="svg_201" stroke="#000000" x1="248.19" x2="248.19" y1="27.71" y2="38.11"/>
  <line fill="none" id="svg_202" stroke="#000000" x1="264.45" x2="263.92" y1="14.37" y2="56.24"/>
  <line fill="none" id="svg_203" stroke="#000000" x1="263.39" x2="263.65" y1="62.69" y2="107.23"/>
  <line fill="none" id="svg_204" stroke="#000000" x1="270.45" x2="301.79" y1="83.36" y2="83.23"/>
  <line fill="none" id="svg_205" stroke="#000000" x1="301.65" x2="301.79" y1="14.96" y2="83.09"/>
  <line fill="none" id="svg_206" stroke="#000000" transform="matrix(1 0 0 1 0 0)" x1="263.39" x2="301.39" y1="67.23" y2="67.09"/>
  <line fill="none" id="svg_207" stroke="#000000" x1="301.52" x2="301.25" y1="82.48" y2="152.21"/>
  <line fill="none" id="svg_208" stroke="#000000" x1="264.19" x2="301.25" y1="117.15" y2="117.68"/>
  <line fill="none" id="svg_209" stroke="#000000" x1="264.19" x2="263.79" y1="115.09" y2="139.63"/>
  <line fill="none" id="svg_210" stroke="#000000" transform="matrix(1 0 0 1 0 0)" x1="263.52" x2="263.65" y1="146.88" y2="187.81"/>
  <line fill="none" id="svg_211" stroke="#000000" x1="269.79" x2="301.12" y1="150.24" y2="150.64"/>
  <line fill="none" id="svg_212" stroke="#000000" x1="270.19" x2="300.45" y1="166.91" y2="166.91"/>
  <line fill="none" id="svg_213" stroke="#000000" transform="matrix(1 0 0 1 0 0)" x1="301.52" x2="301.12" y1="149.44" y2="174.64"/>
  <text fill="#000000" font-family="Serif" font-size="7" id="svg_214" stroke="#000000" stroke-width="0" text-anchor="middle" transform="matrix(1 0 0 1 0 0)" x="283.65" xml:space="preserve" y="43.31">224</text>
  <text fill="#000000" font-family="Serif" font-size="7" id="svg_215" stroke="#000000" stroke-width="0" text-anchor="middle" x="227.92" xml:space="preserve" y="52.51">223</text>
  <text fill="#000000" font-family="Serif" font-size="7" id="svg_216" stroke="#000000" stroke-width="0" text-anchor="middle" x="228.45" xml:space="preserve" y="104.24">322</text>
  <text fill="#000000" font-family="Serif" font-size="7" id="svg_217" stroke="#000000" stroke-width="0" text-anchor="middle" x="283.12" xml:space="preserve" y="100.91">325</text>
  <text fill="#000000" font-family="Serif" font-size="7" id="svg_218" stroke="#000000" stroke-width="0" text-anchor="middle" x="282.85" xml:space="preserve" y="136.77">326</text>
  <text fill="#000000" font-family="Serif" font-size="7" id="svg_219" stroke="#000000" stroke-width="0" text-anchor="middle" x="228.19" xml:space="preserve" y="135.28">321</text>
  <text fill="#000000" font-family="Serif" font-size="7" id="svg_220" stroke="#000000" stroke-width="0" text-anchor="middle" x="229.25" xml:space="preserve" y="193.28">320</text>
  <text fill="#000000" font-family="Serif" font-size="7" id="svg_221" stroke="#000000" stroke-width="0" text-anchor="middle" x="281.65" xml:space="preserve" y="184.37">327</text>
  <text fill="#000000" font-family="Serif" font-size="7" id="svg_222" stroke="#000000" stroke-width="0" text-anchor="middle" x="284.05" xml:space="preserve" y="234.91">328</text>
  <text fill="#000000" font-family="Serif" font-size="7" id="svg_223" stroke="#000000" stroke-width="0" text-anchor="middle" x="285.25" xml:space="preserve" y="265.04">328A</text>
  <text fill="#000000" font-family="Serif" font-size="5" id="svg_224" stroke="#000000" stroke-width="0" text-anchor="middle" transform="matrix(1 0 0 1 0 0)" x="222.05" xml:space="preserve" y="280.91">317</text>
  <text fill="#000000" font-family="Serif" font-size="5" id="svg_225" stroke="#000000" stroke-width="0" text-anchor="middle" x="220.19" xml:space="preserve" y="298.56">317A</text>
  <text fill="#000000" font-family="Serif" font-size="5" id="svg_226" stroke="#000000" stroke-width="0" text-anchor="middle" x="246.72" xml:space="preserve" y="330.91">329</text>
  <text fill="#000000" font-family="Serif" font-size="7" id="svg_227" stroke="#000000" stroke-width="0" text-anchor="middle" transform="matrix(1 0 0 1 0 0)" x="249.25" xml:space="preserve" y="366.51">330</text>
  <text fill="#000000" font-family="Serif" font-size="5" id="svg_228" stroke="#000000" stroke-width="0" text-anchor="middle" transform="matrix(1 0 0 1 0 0)" x="188.77" xml:space="preserve" y="299.57">316</text>
  <text fill="#000000" font-family="Serif" font-size="5" id="svg_229" stroke="#000000" stroke-width="0" text-anchor="middle" x="160.11" xml:space="preserve" y="297.71">315</text>
  <text fill="#000000" font-family="Serif" font-size="5" id="svg_230" stroke="#000000" stroke-width="0" text-anchor="middle" x="129.71" xml:space="preserve" y="296.91">315A</text>
  <text fill="#000000" font-family="Serif" font-size="5" id="svg_231" stroke="#000000" stroke-width="0" text-anchor="middle" x="185.79" xml:space="preserve" y="406.03">337A</text>
  <text fill="#000000" font-family="Serif" font-size="5" id="svg_232" stroke="#000000" stroke-width="0" text-anchor="middle" x="188.72" xml:space="preserve" y="435.49">337</text>
  <text fill="#000000" font-family="Serif" font-size="5" id="svg_233" stroke="#000000" stroke-width="0" text-anchor="middle" transform="matrix(1 0 0 1 0 0)" x="130.72" xml:space="preserve" y="445.97">338</text>
  <text fill="#000000" font-family="Serif" font-size="5" id="svg_234" stroke="#000000" stroke-width="0" text-anchor="middle" x="159.65" xml:space="preserve" y="444.91">338A</text>
  <text fill="#000000" font-family="Serif" font-size="5" id="svg_235" stroke="#000000" stroke-width="0" text-anchor="middle" x="131.52" xml:space="preserve" y="405.71">336</text>
  <text fill="#000000" font-family="Serif" font-size="6" id="svg_236" stroke="#000000" stroke-width="0" text-anchor="middle" transform="matrix(1 0 0 1 0 0)" x="58.99" xml:space="preserve" y="448.35">339</text>
  <text fill="#000000" font-family="Serif" font-size="6" id="svg_237" stroke="#000000" stroke-width="0" text-anchor="middle" transform="matrix(1 0 0 1 0 0)" x="45.52" xml:space="preserve" y="418.29">340</text>
  <text fill="#000000" font-family="Serif" font-size="4" id="svg_238" stroke="#000000" stroke-width="0" text-anchor="middle" transform="matrix(1 0 0 1 0 0)" x="100.59" xml:space="preserve" y="394.96">335</text>
  <text fill="#000000" font-family="Serif" font-size="7" id="svg_239" stroke="#000000" stroke-width="0" text-anchor="middle" transform="matrix(1 0 0 1 0 0)" x="43.65" xml:space="preserve" y="378.69">341</text>
  <text fill="#000000" font-family="Serif" font-size="4" id="svg_240" stroke="#000000" stroke-width="0" text-anchor="middle" x="103.39" xml:space="preserve" y="376.03">334</text>
  <text fill="#000000" font-family="Serif" font-size="7" id="svg_241" stroke="#000000" stroke-width="0" text-anchor="middle" transform="matrix(1 0 0 1 0 0)" x="44.19" xml:space="preserve" y="320.48">342</text>
  <text fill="#000000" font-family="Serif" font-size="6" id="svg_242" stroke="#000000" stroke-width="0" text-anchor="middle" transform="matrix(1 0 0 1 0 0)" x="42.05" xml:space="preserve" y="273.23">302</text>
  <text fill="#000000" font-family="Serif" font-size="6" id="svg_243" stroke="#000000" stroke-width="0" text-anchor="middle" x="41.39" xml:space="preserve" y="236.96">303</text>
  <text fill="#000000" font-family="Serif" font-size="6" id="svg_244" stroke="#000000" stroke-width="0" text-anchor="middle" x="92.32" xml:space="preserve" y="205.76">314</text>
  <text fill="#000000" font-family="Serif" font-size="4" id="svg_245" stroke="#000000" stroke-width="0" text-anchor="middle" transform="matrix(1 0 0 1 0 0)" x="36.19" xml:space="preserve" y="204.16">303A</text>
  <text fill="#000000" font-family="Serif" font-size="6" id="svg_246" stroke="#000000" stroke-width="0" text-anchor="middle" transform="matrix(1 0 0 1 0 0)" x="42.72" xml:space="preserve" y="166.64">305</text>
  <text fill="#000000" font-family="Serif" font-size="6" id="svg_247" stroke="#000000" stroke-width="0" text-anchor="middle" transform="matrix(1 0 0 1 0 0)" x="93.25" xml:space="preserve" y="173.97">313</text>
  <text fill="#000000" font-family="Serif" font-size="6" id="svg_248" stroke="#000000" stroke-width="0" text-anchor="middle" x="94.85" xml:space="preserve" y="145.41">312</text>
  <text fill="#000000" font-family="Serif" font-size="6" id="svg_249" stroke="#000000" stroke-width="0" text-anchor="middle" x="95.65" xml:space="preserve" y="113.71">311</text>
  <text fill="#000000" font-family="Serif" font-size="6" id="svg_250" stroke="#000000" stroke-width="0" text-anchor="middle" x="95.65" xml:space="preserve" y="81.44">310</text>
  <text fill="#000000" font-family="Serif" font-size="6" id="svg_251" stroke="#000000" stroke-width="0" text-anchor="middle" x="94.85" xml:space="preserve" y="58.77">309</text>
  <text fill="#000000" font-family="Serif" font-size="6" id="svg_252" stroke="#000000" stroke-width="0" text-anchor="middle" x="44.72" xml:space="preserve" y="50.51">308</text>
  <text fill="#000000" font-family="Serif" font-size="6" id="svg_253" stroke="#000000" stroke-width="0" text-anchor="middle" x="44.19" xml:space="preserve" y="82.24">307</text>
  <text fill="#000000" font-family="Serif" font-size="6" id="svg_254" stroke="#000000" stroke-width="0" text-anchor="middle" x="44.59" xml:space="preserve" y="120.24">306</text>
  <text fill="#000000" font-family="Serif" font-size="6" id="svg_255" stroke="#000000" stroke-width="0" text-anchor="middle" x="102.32" xml:space="preserve" y="330.43">332</text>
  <text fill="#000000" font-family="Serif" font-size="9" id="svg_257" stroke="#000000" stroke-width="0" text-anchor="middle" transform="matrix(1 0 0 1 0 0)" x="160.05" xml:space="preserve" y="359.71">Зимний Сад</text>
  <path d="m96.76,412.11c0.58,0 1.16,-0.01 1.74,-0.01c0,-0.6 0.01,-1.19 0.01,-1.79c0.58,0 1.15,0 1.73,0c0,-0.6 0,-1.2 0,-1.8c0.59,0 1.18,0 1.78,0c0,-0.58 0,-1.17 0,-1.75c0.58,0 1.17,0 1.75,0c0,-0.58 0,-1.17 0,-1.75c0.87,0 1.74,0 2.61,0c0,0.29 0,0.58 0,0.88c-0.58,0 -1.15,0 -1.73,0c0,0.59 0,1.18 0,1.78c-0.58,0 -1.17,0 -1.75,0c0,0.59 0,1.18 0,1.78c-0.58,0 -1.17,0 -1.75,0c0,0.59 0,1.18 0,1.78c-0.59,0 -1.18,0 -1.78,0c0,0.6 0,1.2 0,1.8c-0.88,0 -1.75,0 -2.63,0c0.04,-0.29 -0.07,-0.62 0.03,-0.9z" fill="none" id="svg_258" stroke="#000000"/>
  <path d="m94.26,349.89c0.95,-0.01 1.89,-0.01 2.84,-0.02c0.01,-0.97 0.01,-1.95 0.02,-2.92c0.94,0 1.88,0 2.83,0c0,-0.98 0,-1.96 0,-2.94c0.97,0 1.93,0 2.9,0c0,-0.95 0,-1.91 0,-2.86c0.95,0 1.91,0 2.86,0c0,-0.95 0,-1.91 0,-2.86c1.42,0 2.84,0 4.26,0c0,0.48 0,0.95 0,1.43c-0.94,0 -1.89,0 -2.83,0c0,0.97 0,1.93 0,2.9c-0.95,0 -1.91,0 -2.86,0c0,0.97 0,1.93 0,2.9c-0.95,0 -1.91,0 -2.86,0c0,0.97 0,1.93 0,2.9c-0.97,0 -1.93,0 -2.9,0c0,0.98 0,1.96 0,2.94c-1.43,0 -2.86,0 -4.3,0c0.06,-0.47 -0.11,-1.01 0.04,-1.47z" fill="none" id="svg_259" stroke="#000000"/>
  <path d="m89.19,261.51c0.54,0 1.08,-0.01 1.62,-0.01c0,-0.56 0.01,-1.11 0.01,-1.67c0.54,0 1.08,0 1.62,0c0,-0.56 0,-1.12 0,-1.68c0.55,0 1.1,0 1.66,0c0,-0.55 0,-1.09 0,-1.64c0.55,0 1.09,0 1.64,0c0,-0.55 0,-1.09 0,-1.64c0.81,0 1.62,0 2.43,0c0,0.27 0,0.55 0,0.82c-0.54,0 -1.08,0 -1.62,0c0,0.55 0,1.1 0,1.66c-0.55,0 -1.09,0 -1.64,0c0,0.55 0,1.1 0,1.66c-0.55,0 -1.09,0 -1.64,0c0,0.55 0,1.1 0,1.66c-0.55,0 -1.1,0 -1.66,0c0,0.56 0,1.12 0,1.68c-0.82,0 -1.64,0 -2.45,0c0.04,-0.27 -0.06,-0.58 0.02,-0.84z" fill="none" id="svg_260" stroke="#000000"/>
  <path d="m90.26,46.9c0.65,0 1.29,-0.01 1.94,-0.01c0,-0.66 0.01,-1.33 0.01,-1.99c0.64,0 1.29,0 1.93,0c0,-0.67 0,-1.34 0,-2.01c0.66,0 1.32,0 1.98,0c0,-0.65 0,-1.31 0,-1.96c0.65,0 1.31,0 1.96,0c0,-0.65 0,-1.31 0,-1.96c0.97,0 1.94,0 2.91,0c0,0.33 0,0.65 0,0.98c-0.64,0 -1.29,0 -1.93,0c0,0.66 0,1.32 0,1.98c-0.65,0 -1.31,0 -1.96,0c0,0.66 0,1.32 0,1.98c-0.65,0 -1.31,0 -1.96,0c0,0.66 0,1.32 0,1.98c-0.66,0 -1.32,0 -1.98,0c0,0.67 0,1.34 0,2.01c-0.98,0 -1.96,0 -2.94,0c0.04,-0.32 -0.07,-0.69 0.03,-1z" fill="none" id="svg_261" stroke="#000000"/>
  <path d="m221.6,28.71c0.62,0 1.24,-0.01 1.86,-0.01c0,-0.64 0.01,-1.27 0.01,-1.91c0.62,0 1.23,0 1.85,0c0,-0.64 0,-1.28 0,-1.92c0.63,0 1.26,0 1.89,0c0,-0.62 0,-1.25 0,-1.87c0.62,0 1.25,0 1.87,0c0,-0.62 0,-1.25 0,-1.87c0.93,0 1.85,0 2.78,0c0,0.31 0,0.62 0,0.94c-0.62,0 -1.23,0 -1.85,0c0,0.63 0,1.26 0,1.89c-0.62,0 -1.25,0 -1.87,0c0,0.63 0,1.26 0,1.89c-0.62,0 -1.25,0 -1.87,0c0,0.63 0,1.26 0,1.89c-0.63,0 -1.26,0 -1.89,0c0,0.64 0,1.28 0,1.92c-0.94,0 -1.87,0 -2.81,0c0.04,-0.31 -0.07,-0.66 0.03,-0.96z" fill="none" id="svg_262" stroke="#000000"/>
  <path d="m222.25,260.14c0.49,0 0.99,-0.01 1.48,-0.01c0,-0.51 0.01,-1.01 0.01,-1.52c0.49,0 0.98,0 1.47,0c0,-0.51 0,-1.02 0,-1.53c0.5,0 1.01,0 1.51,0c0,-0.5 0,-0.99 0,-1.49c0.5,0 0.99,0 1.49,0c0,-0.5 0,-0.99 0,-1.49c0.74,0 1.48,0 2.22,0c0,0.25 0,0.5 0,0.75c-0.49,0 -0.98,0 -1.47,0c0,0.5 0,1.01 0,1.51c-0.5,0 -0.99,0 -1.49,0c0,0.5 0,1.01 0,1.51c-0.5,0 -0.99,0 -1.49,0c0,0.5 0,1.01 0,1.51c-0.5,0 -1.01,0 -1.51,0c0,0.51 0,1.02 0,1.53c-0.75,0 -1.49,0 -2.24,0c0.03,-0.25 -0.06,-0.53 0.02,-0.76z" fill="none" id="svg_263" stroke="#000000"/>
  <line fill="none" id="svg_264" stroke="#000000" transform="matrix(1 0 0 1 0 0)" x1="78.53" x2="78.4" y1="33.01" y2="40.21"/>
 </g>
</svg>